<svg xmlns="http://www.w3.org/2000/svg" version="1.1" width="600px" height="600px" viewBox="0 0 200 200" style="overflow:hidden!important;"><g id="svga-group-wrapper"><g id="svga-group-backs-single"><path id="SvgjsPath15628" d="M0 0h200v200H0V0z" fill="#ecf0f1" stroke-width="none" opacity="1"></path><path id="SvgjsPath15629" d="M96.9 141.1c-19.9 0-36.1-16.2-36.1-36.1S77 69 96.9 69 133 85.2 133 105s-16.2 36.1-36.1 36.1zm35 15.3c-6.7 0-12.2-5.5-12.2-12.2 0-6.7 5.5-12.2 12.2-12.2 6.7 0 12.2 5.5 12.2 12.2 0 6.7-5.4 12.2-12.2 12.2zM27.7 117.8c-12.3 0-22.2-10-22.2-22.2s10-22.2 22.2-22.2 22.2 10 22.2 22.2-10 22.2-22.2 22.2zm-14 28.5c-.1.2-.3.4-.4.6-8.8 13.6-4.8 31.9 8.8 40.7a29.53 29.53 0 0 0 41.1-9.4l-49.5-31.9zm184.9-26.5h-.3a13.97 13.97 0 0 0 1.3 27.9h.3l-1.3-27.9z" fill="#d8f94b" stroke-width="none" opacity="1"></path><path id="SvgjsPath15630" d="M96.9 66.3c-21.4 0-38.7 17.3-38.7 38.7 0 21.4 17.3 38.7 38.7 38.7 21.4 0 38.7-17.3 38.7-38.7 0-21.3-17.3-38.7-38.7-38.7zM66.2 91.9c.5-.6 1.1-1.1 1.8-1.4a4.67 4.67 0 0 1 2.6-.2L94.3 104H71.5c-2.1 0-4.1-1-5.4-2.6s-1.7-3.8-1.2-5.9l.1-.3c.4-1.2.8-2.3 1.2-3.3zm-1 14.9c.9-1.2 2.3-1.9 3.8-1.9h25.9l-24.7 14.2c-.7.4-1.6.5-2.4.2-.8-.3-1.4-1-1.6-1.8l-1.8-6.6c-.4-1.4-.1-2.9.8-4.1zm5.7-17.6c-.7-.4-1.2-1.2-1.3-2s.2-1.7.8-2.3l4.9-4.9c.9-.9 2.1-1.4 3.3-1.4h.6c1 .1 1.9.6 2.6 1.2l13.2 23-22.6-13c-.5-.3-1-.5-1.5-.6zm11.3-10.7c-.4-.7-.5-1.6-.2-2.4.3-.8 1-1.4 1.8-1.6l6.6-1.8c.4-.1.8-.2 1.2-.2 1 0 2 .3 2.9 1 .8.6 1.4 1.4 1.6 2.4-.1.4-.2.9-.2 1.4v24.8L83.6 80.5c-.3-.4-.6-.9-.9-1.2l-.5-.8zm45.2 22.7a6.59 6.59 0 0 1-5.4 2.6H99.2l23.7-13.7c.8-.2 1.8-.1 2.6.2 1.2.5 2.2 1.6 2.5 2.9l.6 2.1c.5 2.1.1 4.3-1.2 5.9zm-3.5-14c-.1.8-.6 1.6-1.3 2-.5.1-1 .3-1.4.6l-22.6 13.1L111.7 80c.7-.7 1.6-1.1 2.6-1.2h.6c1.2 0 2.4.5 3.3 1.4l4.9 4.9c.7.4.9 1.2.8 2.1zm-12.6-8.7-.5.8c-.4.4-.7.8-.9 1.2l-12.4 21.6V77.3c0-.5-.1-.9-.2-1.4.3-.9.8-1.8 1.6-2.4a4.27 4.27 0 0 1 4.1-.8l6.6 1.8c.8.2 1.5.8 1.8 1.6.4.7.4 1.6-.1 2.4zM70 122.7c.2-1.3.9-2.5 2.1-3.2L95 106.3l-11.6 20.1c-1.1 1.8-2.9 3-5 3.3-2.1.3-4.2-.4-5.7-1.9l-1.5-1.5c-.9-.9-1.3-2.2-1.2-3.6zm12.8 7.2L96 107.1v23.2c0 2.1-1 4.1-2.6 5.4s-3.8 1.7-5.9 1.2l-2.1-.6c-1.3-.4-2.4-1.3-2.9-2.5-.4-1.3-.3-2.7.3-3.9zm17.3 5.8a6.59 6.59 0 0 1-2.6-5.4v-23.2l13.2 22.8c.7 1.2.8 2.6.2 3.8s-1.6 2.2-2.9 2.5l-2.1.6c-2 .6-4.1.2-5.8-1.1zm15-5.9c-2.1-.3-3.9-1.5-5-3.3l-11.6-20.1 22.8 13.2c1.2.7 1.9 1.8 2.1 3.2.2 1.3-.3 2.7-1.2 3.6l-1.5 1.5a7.14 7.14 0 0 1-5.6 1.9zm10.6-10.5c-.8.3-1.7.3-2.4-.2l-24.7-14.2h25.9c1.5 0 2.9.7 3.8 1.9s1.2 2.7.8 4.1l-1.8 6.6c-.2.9-.8 1.5-1.6 1.8zm6.2 11.8c-7.2 0-13.1 5.9-13.1 13.1s5.8 13.1 13.1 13.1 13.1-5.9 13.1-13.1-5.8-13.1-13.1-13.1zm-10.3 8.7c.2-.2.4-.4.6-.5.2-.1.4-.1.6-.1h.3l8 4.6h-7.7c-.7 0-1.4-.3-1.8-.9-.4-.6-.6-1.3-.4-2v-.1c.1-.3.2-.7.4-1zm-.4 5c.3-.4.8-.6 1.3-.6h8.7l-8.3 4.8c-.2.1-.5.2-.8.1-.3-.1-.5-.3-.5-.6l-.6-2.2c-.2-.6-.1-1.1.2-1.5zm2-5.9c-.2-.1-.4-.4-.4-.7 0-.3.1-.6.3-.8l1.6-1.6c.3-.3.7-.5 1.1-.5h.2c.3 0 .6.2.9.4l4.5 7.7-7.6-4.4c-.3-.1-.5-.1-.6-.1zm3.8-3.7c-.1-.2-.2-.5-.1-.8.1-.3.3-.5.6-.5l2.2-.6c.1 0 .3-.1.4-.1.4 0 .7.1 1 .3.3.2.5.5.6.8 0 .1-.1.3-.1.5v8.4l-4.2-7.3c-.1-.1-.2-.3-.3-.4l-.1-.3zm15.2 7.7c-.4.6-1.1.9-1.8.9h-7.7l8-4.6c.3-.1.6-.1.9.1.4.2.7.5.9 1l.2.7c.1.6 0 1.4-.5 1.9zm-1.1-4.7c0 .3-.2.5-.4.7-.2 0-.3.1-.5.2l-7.6 4.4 4.5-7.7c.2-.2.6-.4.9-.4h.2c.4 0 .8.2 1.1.5l1.6 1.6c.1.1.2.4.2.7zm-4.3-3-.2.3c-.1.1-.2.3-.3.4l-4.2 7.3v-8.4c0-.2 0-.3-.1-.5.1-.3.3-.6.6-.8.3-.2.6-.3 1-.3.1 0 .3 0 .4.1l2.2.6c.3.1.5.3.6.5.2.3.2.6 0 .8zm-13.9 15c.1-.4.3-.9.7-1.1l7.7-4.4-3.9 6.8c-.4.6-1 1-1.7 1.1s-1.4-.1-1.9-.6l-.5-.5c-.3-.4-.5-.9-.4-1.3zm4.3 2.4 4.4-7.7v7.8c0 .7-.3 1.4-.9 1.8-.6.4-1.3.6-2 .4l-.7-.2c-.4-.1-.8-.4-1-.9-.1-.3 0-.8.2-1.2zm5.8 2c-.6-.4-.9-1.1-.9-1.8V145l4.4 7.7c.2.4.3.9.1 1.3s-.5.7-1 .9l-.7.2c-.6 0-1.3-.1-1.9-.5zm5.1-2c-.7-.1-1.3-.5-1.7-1.1l-3.9-6.8 7.7 4.4c.4.2.7.6.7 1.1.1.4-.1.9-.4 1.2l-.5.5c-.5.5-1.2.7-1.9.7zm3.6-3.6c-.3.1-.6.1-.8-.1l-8.3-4.8h8.7c.5 0 1 .2 1.3.6.3.4.4.9.3 1.4l-.6 2.2c-.2.4-.4.6-.6.7zm-114-77.3a23.9 23.9 0 1 0 0 47.8 23.9 23.9 0 0 0 0-47.8zm-19 15.7c.3-.4.7-.7 1.2-.9.3-.1.7-.2 1-.2.2 0 .4 0 .5.1L26 94.8H12c-1.3 0-2.5-.6-3.3-1.6-.8-1-1.1-2.3-.7-3.6v-.2c.2-.7.5-1.3.7-2zm-.6 9.2c.6-.7 1.4-1.1 2.3-1.1h16l-15.2 8.8c-.4.3-1 .3-1.5.1-.5-.2-.8-.6-1-1.1l-1.1-4.1c-.2-.9 0-1.9.5-2.6zm3.5-10.8c-.4-.3-.8-.7-.8-1.2-.1-.5.1-1 .5-1.4l3-3c.6-.6 1.3-.9 2.1-.9h.4c.6.1 1.2.3 1.6.8l8.1 14.1-13.9-8.1c-.4-.1-.7-.3-1-.3zm7-6.7c-.3-.4-.3-1-.1-1.5.2-.5.6-.8 1.1-1l4.1-1.1c.2-.1.5-.1.8-.1.6 0 1.2.2 1.8.6.5.4.8.9 1 1.5-.1.3-.1.6-.1.9v15.3l-7.7-13.3c-.2-.3-.4-.5-.6-.8l-.3-.5zm27.9 14.1c-.8 1-2 1.6-3.3 1.6h-14l14.6-8.4c.5-.1 1.1-.1 1.6.1.8.3 1.3 1 1.6 1.8l.3 1.3c.2 1.2 0 2.6-.8 3.6zm-2.2-8.7c-.1.5-.4 1-.8 1.2l-.9.3-14 8.1L36.7 80c.4-.4 1-.7 1.6-.8h.4c.8 0 1.5.3 2.1.9l3 3c.4.4.6.9.5 1.4zm-7.7-5.4-.3.5c-.2.2-.4.5-.6.8L28 93.7V78.4c0-.3 0-.6-.1-.9.2-.6.5-1.1 1-1.5.5-.4 1.1-.6 1.8-.6.2 0 .5 0 .8.1l4.1 1.1c.5.1.9.5 1.1 1 .2.6.1 1.1-.1 1.5zm-25.5 27.3c.1-.8.6-1.6 1.3-2l14.1-8.1-7.2 12.4c-.6 1.1-1.8 1.9-3.1 2.1-1.3.2-2.6-.3-3.5-1.2l-.9-.9c-.5-.6-.8-1.5-.7-2.3zm7.9 4.5 8.1-14.1v14.3c0 1.3-.6 2.5-1.6 3.3s-2.4 1.1-3.6.7l-1.3-.3a2.62 2.62 0 0 1-1.6-3.9zm10.6 3.5c-1-.8-1.6-2-1.6-3.3V96.8l8.1 14.1c.4.7.5 1.6.2 2.4-.3.8-1 1.3-1.8 1.6l-1.3.3c-1.2.3-2.5 0-3.6-.8zm9.3-3.6c-1.3-.2-2.4-.9-3.1-2.1l-7.2-12.4 14.1 8.1c.7.4 1.2 1.1 1.3 2 .1.8-.2 1.7-.8 2.2l-.9.9a4 4 0 0 1-3.4 1.3zm6.5-6.5c-.5.2-1 .2-1.5-.1l-15.2-8.8h15.9a2.84 2.84 0 0 1 2.8 3.6l-1.1 4.1c0 .6-.4 1.1-.9 1.2zm-33.5 40.8c-.1.2-.3.4-.4.6a31.59 31.59 0 0 0 9.4 43.6c14.7 9.4 34.2 5.2 43.7-9.4.1-.2.2-.4.4-.6l-53.1-34.2zm-.2 14.7c-.4-.6-.5-1.3-.3-1.9l1.7-5.3c.4-1.2 1.2-2.1 2.4-2.5s2.4-.3 3.4.4l1.7 1.1 16 10.3-23.2-1.1c-.7-.1-1.3-.5-1.7-1zm-.3 8-.4-1.7c-.2-1.1 0-2.2.8-3s1.8-1.3 2.9-1.2l21.5 1.1-16.9 8.7c-1.5.8-3.3.8-4.9.1-1.6-.9-2.7-2.3-3-4zm14.8 12a5.5 5.5 0 0 1-8.7.7l-1.2-1.3c-.7-.8-1.1-1.9-.9-3s.9-2 1.9-2.5l19.1-9.8-10.2 15.9zm8.7 8.9c-.9.6-2 .8-3.1.5l-1.7-.5c-1.6-.5-2.9-1.8-3.5-3.4-.6-1.6-.4-3.4.5-4.8l10.3-15.9-1 21.5c0 1-.6 2-1.5 2.6zm11-.1-1.7.4c-1.7.4-3.4-.1-4.7-1.2s-2-2.8-1.9-4.5l.9-18.9 9.8 19.1c.5 1 .5 2.1 0 3.1-.4 1-1.3 1.8-2.4 2zm7.4-3.8c-.5.5-1.2.7-1.9.5-.7-.1-1.2-.6-1.6-1.2l-10.6-20.7 16 10.3 1.7 1.1c1 .7 1.7 1.7 1.8 2.9s-.4 2.4-1.3 3.2l-4.1 3.9zm145.3-66h-.3c-8.3.4-14.7 7.4-14.3 15.7s7.4 14.7 15.7 14.3h.3l-1.4-30zm-5.7 3.9c.1-.3.4-.5.7-.6l2.5-.8c.6-.2 1.1-.1 1.6.2s.8.8.8 1.4v.9l.4 9.1-5.9-9.3c-.2-.2-.2-.6-.1-.9zm-3.2 2.1.6-.6c.4-.4.9-.6 1.4-.5.5.1 1 .3 1.3.8l5.5 8.6-8-4.1c-.7-.4-1.2-1.1-1.4-1.9-.2-.9 0-1.7.6-2.3zm-.6 9.1c-.8 0-1.6-.3-2.1-.9-.5-.6-.7-1.4-.6-2.2l.2-.8c.1-.5.4-.9.9-1.2s1-.2 1.5 0l9.1 4.7-9 .4zm-1.1 5.8c-.5-.2-.9-.6-1-1.1l-.2-.8c-.2-.8-.1-1.6.4-2.3s1.2-1.1 2-1.1l9-.4-8.6 5.5c-.5.3-1.1.4-1.6.2zm3.1 4.2-.6-.6c-.6-.6-.9-1.3-.8-2.2s.5-1.5 1.2-2l7.6-4.9-4.7 9.1c-.2.5-.7.8-1.2.9-.6.2-1.1.1-1.5-.3zm3.5 1.9c-.3-.1-.6-.3-.7-.6s-.1-.6 0-.9l5.1-9.8.4 9.1v.9c0 .6-.2 1.1-.6 1.5-.4.4-1 .5-1.6.4l-2.6-.6z" fill="#ffffff" stroke-width="none" opacity="1"></path><path id="SvgjsPath15631" d="M96.9 64.7c-22.3 0-40.4 18.1-40.4 40.4s18.1 40.4 40.4 40.4 40.4-18.1 40.4-40.4-18.1-40.4-40.4-40.4zm0 77.4c-20.5 0-37.1-16.6-37.1-37.1s16.7-37 37.1-37S134 84.6 134 105s-16.6 37.1-37.1 37.1zm35-11.5c-7.5 0-13.6 6.1-13.6 13.6s6.1 13.6 13.6 13.6 13.6-6.1 13.6-13.6-6-13.6-13.6-13.6zm0 26.1a12.5 12.5 0 1 1 0-25 12.5 12.5 0 0 1 0 25zm-104.2-86C14 70.7 2.8 81.8 2.8 95.5s11.2 24.9 24.9 24.9 24.9-11.2 24.9-24.9-11.2-24.8-24.9-24.8zm0 47.7c-12.6 0-22.9-10.3-22.9-22.9s10.3-22.9 22.9-22.9 22.9 10.3 22.9 22.9-10.3 22.9-22.9 22.9zm36.9 60.7c-.1.2-.2.4-.4.6a31.16 31.16 0 0 1-43 9.3 31.26 31.26 0 0 1-9.3-43.1c.1-.2.3-.4.4-.6l-.7-.5c-.1.2-.3.4-.4.6a31.9 31.9 0 0 0 9.6 44.2 31.9 31.9 0 0 0 44.6-10.2l-.8-.3zm135.3-30.6h-.3c-8.1.4-15.1-6-15.5-14.1s6-15.1 14.1-15.5h.3v-.4h-.3a15.2 15.2 0 1 0 1.4 30.4h.3v-.4z" fill="#8ab21b" stroke-width="none" opacity="1"></path><path id="SvgjsPath15632" d="M145.5 195.1a17.61 17.61 0 0 1-9.1-23.1c3.9-8.9 14.2-12.9 23.1-9.1s12.9 14.2 9.1 23.1a17.7 17.7 0 0 1-23.1 9.1zM48.9 87c-8.9-3.8-13-14.2-9.1-23.1S54 51 62.9 54.8 75.8 69 72 77.9 57.8 90.8 48.9 87z" fill="#ffed43" stroke-width="none" opacity="1"></path><path id="SvgjsPath15633" d="M160 161.7c-9.5-4.1-20.6.2-24.8 9.8s.2 20.6 9.8 24.8 20.6-.2 24.8-9.8-.3-20.6-9.8-24.8zm-18.7 5.5c.3-.2.7-.3 1.1-.3.3 0 .6.1.8.2.1.1.2.1.4.2l7.9 10.7-10.2-4.4c-.9-.4-1.6-1.2-1.9-2.2-.2-1 0-2 .6-2.8l.1-.1c.5-.6.8-.9 1.2-1.3zm-3.3 6.4c.6-.4 1.4-.4 2-.1l1.1.5 10.4 4.5-13.8 1.6c-.4.1-.8-.1-1.1-.4-.3-.3-.4-.7-.4-1.1l.5-3.3c.3-.7.7-1.3 1.3-1.7zm5.9-6.7c-.2-.3-.3-.8-.2-1.1s.4-.7.8-.9l3.1-1.2c.6-.2 1.2-.2 1.8 0 .1 0 .2.1.3.1.4.2.7.6.9 1.1l1.5 12.8-7.6-10.2c-.2-.3-.4-.5-.6-.6zm7.1-2.6c-.1-.4.1-.8.4-1.1.3-.3.7-.4 1.1-.4l3.3.5c.2 0 .4.1.6.2.5.2.8.5 1.1 1 .2.4.3.9.3 1.4l-.3.6-4.8 11-1.4-12c0-.2-.1-.5-.2-.7l-.1-.5zm15.8 18.9a3 3 0 0 1-2.9.1l-10.2-4.4 13.2-1.5c.4.1.8.3 1.1.6.5.5.7 1.1.6 1.8l-.1 1c-.2 1-.8 1.9-1.7 2.4zm1.2-7c-.2.4-.6.6-1 .6-.2 0-.5-.1-.8 0l-12.6 1.4 10.3-7.6c.4-.2.9-.2 1.4-.1.1 0 .2.1.3.1.6.2 1 .7 1.2 1.3l1.2 3.1c.2.5.2.9 0 1.2zm-3.9-6.3-.4.3c-.2.1-.4.2-.6.4l-9.7 7.2 4.8-11c.1-.2.2-.4.2-.6.3-.4.7-.6 1.2-.7.5-.1 1-.1 1.5.1.2.1.4.2.5.3l2.6 2.1c.3.3.5.6.5 1.1-.1.2-.3.6-.6.8zm-27 11.8c.3-.6.9-.9 1.6-1l12.7-1.5-9.1 6.7c-.8.6-1.9.8-2.9.5s-1.8-1-2.1-1.9l-.4-1c-.2-.6-.2-1.3.2-1.8zm4.3 5.7 10.3-7.6-4.5 10.4c-.4.9-1.2 1.6-2.2 1.9-1 .2-2 0-2.8-.6l-.8-.6c-.5-.4-.8-1-.8-1.7-.1-.8.3-1.4.8-1.8zm6.6 5.9a3 3 0 0 1-.1-2.9l4.5-10.4 1.5 12.7c.1.7-.1 1.3-.6 1.8s-1.1.7-1.8.6l-1-.1c-1.2-.2-2-.8-2.5-1.7zm7.8.2c-.9-.5-1.4-1.4-1.6-2.4l-1.3-11.2 7.6 10.3c.4.5.5 1.2.3 1.8s-.6 1.1-1.2 1.4l-1 .4c-.9.3-1.9.2-2.8-.3zm6.8-2.6c-.4 0-.8-.2-1-.5l-8.2-11.1 10.4 4.5 1.1.5c.7.3 1.1.9 1.3 1.6.2.7 0 1.4-.4 2l-2.1 2.6c-.3.3-.7.4-1.1.4zM63.4 53.7c-9.5-4.1-20.6.2-24.8 9.8s.2 20.6 9.8 24.7S69 88 73.2 78.4c4.1-9.5-.3-20.6-9.8-24.7zm-18.6 5.4c.3-.2.7-.3 1.1-.3.3 0 .6.1.8.2.1.1.2.1.4.2L55 69.9l-10.2-4.4c-.9-.4-1.6-1.2-1.9-2.2-.2-1 0-2 .6-2.8l.1-.1c.4-.5.8-.9 1.2-1.3zm-3.3 6.5c.6-.3 1.4-.4 2-.1l1.1.5L55 70.5 41.3 72c-.4.1-.8-.1-1.1-.4-.3-.3-.4-.7-.4-1.1l.5-3.3c.1-.7.5-1.3 1.2-1.6zm5.9-6.8c-.2-.3-.3-.8-.2-1.2s.4-.7.8-.9l3.1-1.2c.6-.2 1.2-.2 1.8 0 .1 0 .2.1.3.1.4.2.7.6.9 1.1l1.5 12.7L48 59.2c-.2-.1-.4-.2-.6-.4zm7.1-2.6c0-.4.1-.8.4-1.1.3-.3.7-.4 1.1-.4l3.3.5c.2 0 .4.1.6.2.5.2.8.5 1.1 1 .2.4.3.9.3 1.4l-.3.6-4.8 11-1.4-12c0-.2-.1-.5-.2-.7l-.1-.5zm15.7 18.9a3 3 0 0 1-2.9.1l-10.2-4.4 13.2-1.5c.4.1.8.3 1.1.6.5.5.7 1.1.6 1.8l-.2 1c-.1 1-.7 1.9-1.6 2.4zm1.2-6.9c-.2.3-.6.6-1 .6-.2 0-.5-.1-.8 0L57 70.2l10.3-7.6c.4-.2.9-.2 1.4 0 .1 0 .2.1.3.1.6.2 1 .7 1.2 1.3l1.2 3.1c.3.3.2.7 0 1.1zm-3.9-6.4-.4.3c-.2.1-.4.2-.7.4l-9.7 7.2 4.8-11c.1-.2.2-.4.2-.7.3-.4.7-.6 1.2-.7.5-.1 1-.1 1.5.1.2.1.4.2.5.3l2.6 2.1c.3.3.5.6.5 1s-.2.8-.5 1zm-27 11.8c.3-.6.9-.9 1.6-1l12.7-1.5-9.1 6.7c-.8.6-1.9.8-2.9.5-1-.3-1.8-1-2.2-1.9l-.4-1c-.1-.6 0-1.3.3-1.8zm4.3 5.7 10.3-7.6L50.6 82c-.4.9-1.2 1.6-2.2 1.9-1 .2-2 0-2.8-.6l-.8-.7a2.09 2.09 0 0 1 0-3.3zm6.6 5.9c-.5-.9-.5-2-.1-2.9l4.5-10.4 1.5 12.7c.1.7-.2 1.3-.6 1.8s-1.1.7-1.8.6l-1-.2c-1.1-.1-2-.7-2.5-1.6zm7.8.2c-.9-.5-1.5-1.4-1.6-2.4l-1.3-11.2L64 82.1c.4.5.5 1.2.3 1.8-.2.6-.6 1.1-1.2 1.4l-1 .4c-.9.4-2 .3-2.9-.3zm6.8-2.6c-.4 0-.8-.2-1-.5l-8.2-11.1 10.4 4.5 1.1.5c.7.3 1.1.8 1.3 1.6.2.7 0 1.4-.4 2L67 82.3c-.2.4-.6.6-1 .5z" fill="#ffffff" stroke-width="none" opacity="1"></path><path id="SvgjsPath15634" d="M160.3 161c-9.9-4.3-21.5.3-25.8 10.2-4.3 9.9.3 21.5 10.2 25.8 9.9 4.3 21.5-.3 25.8-10.2 4.3-9.9-.3-21.5-10.2-25.8zm-15 34.5c-9.1-4-13.3-14.6-9.4-23.7 4-9.1 14.6-13.3 23.7-9.4 9.1 4 13.3 14.6 9.4 23.7a17.93 17.93 0 0 1-23.7 9.4zM63.7 52.9c-9.9-4.3-21.5.3-25.8 10.2s.3 21.5 10.2 25.8 21.5-.3 25.8-10.2-.3-21.5-10.2-25.8zm-15 34.5c-9.1-4-13.3-14.6-9.4-23.7S54 50.4 63.1 54.4 76.4 69 72.4 78.1a17.94 17.94 0 0 1-23.7 9.3z" fill="#d3b400" stroke-width="none" opacity="1"></path><path id="SvgjsPath15635" d="M160.6 73.3c-18.8 0-34.1-15.3-34.1-34.1s15.3-34.1 34.1-34.1 34.1 15.3 34.1 34.1-15.3 34.1-34.1 34.1zM83.5 182.1c-12.5 0-22.7-10.2-22.7-22.7s10.2-22.7 22.7-22.7 22.7 10.2 22.7 22.7-10.1 22.7-22.7 22.7zm89.2-52.6-.6.3c-13.3 7-18.4 23.4-11.4 36.7 7 13.3 23.4 18.4 36.7 11.4l.6-.3-25.3-48.1z" fill="#ffcb39" stroke-width="none" opacity="1"></path><path id="SvgjsPath15636" d="M160.6 2.7c-20.2 0-36.6 16.4-36.6 36.6s16.4 36.6 36.6 36.6 36.6-16.4 36.6-36.6c-.1-20.2-16.4-36.6-36.6-36.6zm-29 24.2a3.9 3.9 0 0 1 4.1-1.6l22.4 12.9h-21.5a6.4 6.4 0 0 1-6.2-8l.1-.3c.3-1.1.6-2.1 1.1-3zm-1 14c.9-1.1 2.1-1.8 3.6-1.8h24.4l-23.3 13.5c-.7.4-1.5.5-2.3.2-.7-.3-1.3-.9-1.5-1.7l-1.7-6.3c-.3-1.3 0-2.8.8-3.9zm5.4-16.6c-.7-.4-1.1-1.1-1.3-1.9-.1-.8.2-1.6.7-2.1l4.6-4.6c.9-.9 2-1.3 3.2-1.3h.6c.9.1 1.8.5 2.5 1.2l12.5 21.6-21.4-12.3c-.4-.3-.9-.4-1.4-.6zm10.6-10.1c-.4-.7-.4-1.5-.1-2.3.3-.7.9-1.3 1.7-1.5l6.3-1.7c.4-.1.8-.2 1.2-.2 1 0 1.9.3 2.7.9.8.6 1.3 1.4 1.6 2.2-.1.4-.2.9-.2 1.3v23.4L148 16.1c-.2-.4-.6-.8-.9-1.1l-.5-.8zm42.8 21.5a6.35 6.35 0 0 1-5.1 2.5h-21.5l22.3-12.9a4.04 4.04 0 0 1 4.8 2.9l.5 2c.6 1.9.2 3.9-1 5.5zm-3.3-13.3c-.1.8-.6 1.5-1.3 1.9-.5.1-.9.3-1.4.5L162 37.1l12.5-21.6c.7-.6 1.5-1.1 2.5-1.2h.6c1.2 0 2.3.5 3.2 1.3l4.6 4.6c.5.6.8 1.4.7 2.2zm-11.9-8.2-.4.8c-.3.3-.6.7-.9 1.2l-11.8 20.4V13.1c0-.4-.1-.9-.2-1.3.3-.9.8-1.7 1.6-2.2.8-.6 1.8-.9 2.7-.9.4 0 .8.1 1.2.2l6.3 1.7c.8.2 1.4.8 1.7 1.5.2.6.2 1.4-.2 2.1zm-39 41.8c.2-1.3.9-2.4 2-3l21.6-12.5-11 19a6.2 6.2 0 0 1-4.7 3.1c-2 .3-3.9-.4-5.3-1.8l-1.4-1.4c-1-.9-1.4-2.2-1.2-3.4zm12.1 6.8 12.5-21.6v22c0 2-.9 3.8-2.5 5.1s-3.6 1.6-5.5 1.1l-1.9-.5c-1.2-.3-2.2-1.2-2.7-2.4-.7-1.3-.6-2.6.1-3.7zm16.3 5.4a6.35 6.35 0 0 1-2.5-5.1V41.2l12.5 21.6c.6 1.1.7 2.4.2 3.6s-1.5 2.1-2.7 2.4l-1.9.5c-2 .5-4 .1-5.6-1.1zm14.1-5.6c-2-.3-3.7-1.4-4.7-3.1l-11-19L183.6 53a4.02 4.02 0 0 1 .8 6.4l-1.4 1.4a6.13 6.13 0 0 1-5.3 1.8zm10.1-9.8c-.7.3-1.6.2-2.3-.2l-23.3-13.5h24.4a4.57 4.57 0 0 1 4.4 5.7l-1.7 6.3c-.2.8-.8 1.4-1.5 1.7zM83.5 135c-13.5 0-24.4 10.9-24.4 24.4 0 13.5 10.9 24.4 24.4 24.4 13.5 0 24.4-10.9 24.4-24.4 0-13.5-10.9-24.4-24.4-24.4zm-19.3 16.1c.3-.4.7-.7 1.1-.9.3-.1.7-.2 1.1-.2.2 0 .4 0 .6.1l14.9 8.6H67.5c-1.3 0-2.6-.6-3.4-1.7-.8-1.1-1.1-2.4-.7-3.7v-.2c.3-.7.5-1.4.8-2zm-.6 9.4c.6-.7 1.4-1.2 2.4-1.2h16.3l-15.5 9c-.5.3-1 .3-1.5.1-.5-.2-.9-.6-1-1.1l-1.1-4.2c-.4-.9-.2-1.9.4-2.6zm3.6-11.1c-.5-.3-.8-.7-.8-1.2s.1-1.1.5-1.4l3.1-3.1c.6-.6 1.3-.9 2.1-.9h.4c.6.1 1.2.4 1.7.8l8.3 14.4-14.2-8.2c-.5-.2-.8-.3-1.1-.4zm7-6.8c-.3-.5-.3-1-.1-1.5.2-.5.6-.9 1.1-1l4.2-1.1c.3-.1.5-.1.8-.1.7 0 1.3.2 1.8.6.5.4.9.9 1 1.5-.1.3-.1.6-.1.9v15.6l-7.8-13.6c-.2-.3-.4-.5-.6-.8l-.3-.5zm28.5 14.4c-.8 1.1-2 1.7-3.4 1.7H85l14.9-8.6a2.62 2.62 0 0 1 3.2 1.9l.3 1.3c.4 1.3.1 2.6-.7 3.7zm-2.1-8.9c-.1.5-.4 1-.8 1.2-.3.1-.6.2-.9.4L84.5 158l8.3-14.4c.4-.4 1-.7 1.7-.8h.4c.8 0 1.5.3 2.1.9l3.1 3.1c.3.3.5.8.5 1.3zm-8-5.5-.3.5c-.2.2-.4.5-.6.8l-7.8 13.6v-15.6c0-.3 0-.6-.1-.9.2-.6.5-1.1 1-1.5a3 3 0 0 1 1.8-.6c.3 0 .5 0 .8.1l4.2 1.1c.5.1.9.5 1.1 1 .2.5.2 1.1-.1 1.5zm-26 27.9c.1-.9.6-1.6 1.3-2l14.4-8.3-7.3 12.6c-.7 1.1-1.8 1.9-3.1 2.1-1.3.2-2.6-.3-3.6-1.2l-.9-.9c-.6-.6-.9-1.5-.8-2.3zm8.1 4.6 8.3-14.4v14.6c0 1.3-.6 2.6-1.7 3.4-1.1.8-2.4 1.1-3.7.7l-1.3-.4c-.8-.2-1.5-.8-1.8-1.6-.3-.7-.3-1.6.2-2.3zm10.9 3.6c-1.1-.8-1.7-2-1.7-3.4v-14.6l8.3 14.4c.4.7.5 1.6.2 2.4-.3.8-1 1.4-1.8 1.6l-1.3.4c-1.4.3-2.7 0-3.7-.8zm9.4-3.8c-1.3-.2-2.5-.9-3.1-2.1l-7.3-12.7 14.4 8.3a2.74 2.74 0 0 1 .5 4.3l-.9.9c-1 1.1-2.3 1.5-3.6 1.3zm6.7-6.5c-.5.2-1 .2-1.5-.1l-15.5-9H101c.9 0 1.8.4 2.4 1.2s.8 1.7.5 2.6l-1.1 4.2c-.3.5-.6.9-1.1 1.1zm70.1-40.7-.6.3a29.15 29.15 0 0 0-12.3 39.4 29.15 29.15 0 0 0 39.4 12.3l.6-.3-27.1-51.7zm-6.8 11.7c-.1-.6.2-1.2.6-1.7l3.8-3.5c.8-.8 1.9-1.1 3-.9s2 .9 2.6 1.9l.9 1.6 8.2 15.6-18.2-11.4c-.5-.4-.8-.9-.9-1.6zm-3.9 6.3.5-1.5a3.3 3.3 0 0 1 4.9-1.8l16.8 10.6-17.5-.7c-1.6-.1-3-.9-3.9-2.1-1-1.3-1.3-3-.8-4.5zm6.5 16.4a5.09 5.09 0 0 1-7.3-3.4l-.4-1.6c-.2-1 0-2 .7-2.8.6-.8 1.6-1.2 2.6-1.2l19.8.9-15.4 8.1zm2.9 11.1c-1 .1-2-.3-2.7-1l-1.1-1.2a5.2 5.2 0 0 1-1.3-4.3 4.9 4.9 0 0 1 2.6-3.6l15.5-8.1-10.6 16.8c-.5.8-1.4 1.3-2.4 1.4zm8.9 5-1.5-.5c-1.5-.5-2.7-1.6-3.3-3.1-.6-1.5-.4-3.1.5-4.5l9.4-14.8-.8 19.9c0 1-.5 1.9-1.4 2.5-.9.6-1.9.8-2.9.5zm7.6.3c-.6.1-1.3 0-1.8-.4s-.8-1-.7-1.6l.9-21.4 8.2 15.6.9 1.6c.5 1 .6 2.1.1 3.2s-1.4 1.7-2.5 2l-5.1 1z" fill="#ffffff" stroke-width="none" opacity="1"></path><path id="SvgjsPath15637" d="M160.6 76.3c-20.4 0-37.1-16.6-37.1-37.1s16.6-37.1 37.1-37.1 37.1 16.6 37.1 37.1c-.1 20.5-16.7 37.1-37.1 37.1zm0-73.1c-19.9 0-36.1 16.2-36.1 36.1s16.2 36.1 36.1 36.1 36.1-16.2 36.1-36.1c-.1-19.9-16.2-36.1-36.1-36.1zM83.5 184.1c-13.6 0-24.7-11.1-24.7-24.7s11.1-24.7 24.7-24.7 24.7 11.1 24.7 24.7c.1 13.6-11 24.7-24.7 24.7zm0-48.8c-13.3 0-24 10.8-24 24.1s10.8 24 24 24 24-10.8 24-24c.1-13.3-10.7-24.1-24-24.1zM198.7 179l-.6.3c-14 7.4-31.5 1.9-38.8-12.1s-1.9-31.5 12.1-38.8l.6-.3-.4-.7-.6.3c-14.4 7.6-20 25.5-12.4 39.9s25.5 20 39.9 12.4l.6-.3-.4-.7z" fill="#edb018" stroke-width="none" opacity="1"></path><path id="SvgjsPath15638" d="M141.6 107.9c.1.2.2.4.4.6 8.4 12.7 25.5 16.1 38.2 7.7s16.1-25.5 7.7-38.2c-.1-.2-.3-.4-.4-.6l-45.9 30.5zM16.3 131.7c.1.1.1.3.2.4 4.5 9.2 15.7 13.1 24.9 8.6S54.5 125 50 115.8c-.1-.1-.1-.3-.2-.4l-33.5 16.3zm67.5 40.8c-.1.1-.1.3-.2.4a18.64 18.64 0 0 0 35.5 11.3c.1-.1.1-.3.1-.4l-35.4-11.3zM185.3 38.8c.1-.1.3-.1.4-.2 8.9-5.2 11.9-16.6 6.8-25.5A18.75 18.75 0 0 0 167 6.3c-.1.1-.3.2-.4.2l18.7 32.3zM80.6 5c-.1.2-.3.4-.4.6-8.1 14.6-2.9 33 11.6 41.2s33 2.9 41.2-11.6c.1-.2.2-.4.3-.7L80.6 5z" fill="#ff9624" stroke-width="none" opacity="1"></path><path id="SvgjsPath15639" d="M140 109c.1.2.2.4.4.6 9 13.6 27.4 17.3 41 8.3 13.6-9 17.3-27.4 8.3-41-.1-.2-.3-.4-.4-.6L140 109zm12.4 5.7c-.6.1-1.3-.1-1.8-.5l-3.9-3.5c-.9-.8-1.3-1.8-1.2-3 .1-1.1.7-2.1 1.6-2.8l1.6-1 14.9-9.9-9.7 19.5c-.3.6-.8 1-1.5 1.2zm6.8 3.3-1.6-.3c-1-.2-1.9-.9-2.3-1.8s-.4-2 0-2.9l9-18 1.1 17.7c.1 1.6-.5 3.2-1.8 4.2a5.3 5.3 0 0 1-4.4 1.1zm15.9-8.3a5.12 5.12 0 0 1-2.6 7.7l-1.6.5c-1 .3-2 .2-2.9-.4s-1.4-1.5-1.5-2.5l-1.2-20.1 9.8 14.8zm10.9-4.1c.2 1-.1 2.1-.8 2.8l-1.1 1.2a5.18 5.18 0 0 1-4.2 1.7c-1.6-.1-3.1-.9-3.9-2.3l-9.8-14.8 18.1 9c.9.6 1.5 1.4 1.7 2.4zm4.1-9.5-.3 1.6c-.3 1.6-1.3 2.9-2.8 3.6s-3.1.7-4.6 0l-15.9-7.9 20.1-1.2c1-.1 2 .3 2.7 1.1.7.8 1 1.8.8 2.8zm-.5-7.7c.2.6.1 1.3-.2 1.8-.4.5-.9.9-1.6.9L166 92.4l14.9-9.9 1.6-1c.9-.6 2.1-.8 3.2-.4s1.9 1.2 2.3 2.3l1.6 5zM15.1 132.3c.1.1.1.3.2.4a20.03 20.03 0 1 0 36-17.6c-.1-.1-.1-.3-.2-.4l-36 17.6zm7.8 4.9c-.4 0-.9-.1-1.1-.5l-2.3-2.7c-.5-.6-.7-1.3-.5-2.1s.6-1.4 1.3-1.7l1.1-.6 10.9-5.3-8.3 12.3c-.2.3-.6.6-1.1.6zm4.3 2.8-1-.4c-.7-.2-1.2-.7-1.4-1.4-.2-.7-.1-1.4.3-2l7.6-11.3-.8 12c-.1 1.1-.6 2.1-1.5 2.7-1.1.6-2.2.8-3.2.4zm11.3-4.1c.5 1 .5 2.1 0 3.1s-1.4 1.7-2.5 1.9l-1.1.2c-.7.1-1.4-.1-1.9-.5-.5-.5-.8-1.1-.8-1.8l1-13.6 5.3 10.7zm7.7-1.8c0 .7-.2 1.4-.8 1.8l-.8.7c-.8.7-1.9 1-3 .8s-2-.9-2.4-1.9L34 124.8l11.3 7.6c.5.4.9 1 .9 1.7zm3.6-6-.4 1c-.4 1-1.2 1.8-2.2 2.2-1 .4-2.2.2-3.1-.4l-10-6.7 13.6.9c.7.1 1.3.4 1.7 1 .6.6.6 1.3.4 2zm.4-5.3c.1.4 0 .9-.3 1.2-.3.3-.7.5-1.2.5l-14.7-1 10.9-5.3 1.1-.6c.7-.3 1.5-.3 2.2 0 .7.3 1.2 1 1.3 1.7l.7 3.5zm32.3 49.3c-.1.1-.1.3-.2.4a19.87 19.87 0 0 0 13 25.1c10.5 3.4 21.8-2.4 25.2-13 .1-.1.1-.3.1-.4l-38.1-12.1zm2.3 9c-.3-.3-.5-.7-.5-1.1l.2-3.6c0-.8.4-1.5 1.1-1.9.6-.4 1.4-.6 2.2-.3l1.2.4 11.5 3.7-14.5 3.1c-.4.1-.8 0-1.2-.3zm1.1 5-.5-1c-.3-.6-.3-1.4 0-2 .3-.6.9-1.1 1.6-1.2l13.3-2.9-8.9 8.1c-.8.7-1.9 1.1-3 .9-1.1-.3-2-1-2.5-1.9zM97 191c-.3 1-1.1 1.9-2.1 2.2s-2.2.2-3.1-.4l-.9-.6c-.6-.4-1-1-1-1.7s.2-1.4.7-1.8l10.1-9.2L97 191zm6.8 4c-.4.5-1.1.8-1.8.8l-1.1-.1a3.55 3.55 0 0 1-3.2-4.6l3.7-11.4 2.9 13.3c.1.8-.1 1.5-.5 2zm6.7-1.9-1 .5c-1 .5-2.1.5-3.1.1-1-.5-1.7-1.4-1.9-2.4l-2.6-11.7 9.2 10.1c.5.5.7 1.2.6 1.9a2 2 0 0 1-1.2 1.5zm3.9-3.5c-.2.4-.6.6-1.1.6-.4 0-.9-.1-1.2-.4l-9.9-10.9 11.5 3.7 1.2.4c.7.2 1.3.8 1.6 1.5.3.7.2 1.5-.2 2.2l-1.9 2.9zM186 40c.1-.1.3-.1.4-.2 9.6-5.6 12.8-17.8 7.2-27.4S175.8-.4 166.2 5.2c-.1.1-.3.2-.4.2L186 40zm4.3-8.2c.1.4-.1.9-.4 1.2l-2.5 2.5c-.5.5-1.3.8-2.1.7-.8-.1-1.4-.5-1.8-1.2l-.6-1.1-6.1-10.5 12.8 7.3c.4.3.7.7.7 1.1zm2.5-4.4-.3 1.1c-.2.7-.6 1.2-1.3 1.5-.6.3-1.4.2-2-.1L177.4 23h12c1.1 0 2.1.5 2.8 1.4.7.8.9 1.9.6 3zm-4.9-11.1c.9-.6 2.1-.6 3.1-.2 1 .4 1.8 1.3 2 2.3l.3 1.1c.2.7.1 1.4-.4 1.9-.4.6-1.1.9-1.8.9h-13.6l10.4-6zm-2.3-7.5c.7-.1 1.4.1 1.9.6l.8.8c.8.8 1.1 1.8 1 2.9-.1 1.1-.8 2-1.7 2.6l-10.4 6L184 9.9c.3-.6.9-1 1.6-1.1zm-6.3-3.1 1.1.3c1.1.3 1.9 1 2.3 2 .4 1 .4 2.1-.2 3.1l-6 10.4V7.9c0-.7.3-1.3.9-1.8.5-.5 1.2-.6 1.9-.4zm-5.2 0c.4-.1.9 0 1.2.2s.6.7.6 1.1v14.7l-6.1-10.4-.6-1.1c-.4-.7-.4-1.4-.1-2.2.3-.7.9-1.2 1.6-1.4l3.4-.9zM78.7 3.9c-.1.2-.3.4-.4.6-8.8 15.7-3.2 35.5 12.5 44.2s35.4 3.2 44.2-12.5c.1-.2.2-.4.3-.7L78.7 3.9zm.7 15c-.4-.6-.6-1.3-.4-2l1.4-5.6a3.9 3.9 0 0 1 2.3-2.7c1.2-.5 2.4-.4 3.5.2l1.8 1 17.1 9.6-23.9.3c-.7.1-1.3-.2-1.8-.8zm.2 8.3-.5-1.7c-.3-1.1-.1-2.2.6-3.2s1.7-1.5 2.9-1.5l22.1-.3-16.7 10c-1.5.9-3.3 1-5 .4-1.7-.6-2.9-2-3.4-3.7zm16 11.3c-.9 1.5-2.4 2.6-4.1 2.8-1.8.3-3.5-.3-4.8-1.5l-1.3-1.2c-.8-.8-1.2-1.9-1.1-3 .1-1.1.8-2.1 1.8-2.7l19-11.3-9.5 16.9zm9.5 8.7c-.9.7-2 1-3.1.7l-1.7-.4a5.56 5.56 0 0 1-3.5-8.2l9.5-17 .3 22.1c-.1 1-.6 2.1-1.5 2.8zm11.3-.9-1.7.5c-1.7.5-3.5.2-4.9-.9s-2.2-2.7-2.3-4.5l-.3-19.4 11.3 19c.6 1 .7 2.2.2 3.2-.3 1-1.2 1.8-2.3 2.1zm7.3-4.3c-.5.5-1.2.8-1.9.7-.7-.1-1.3-.5-1.7-1.1L107.9 21l17.1 9.6 1.8 1c1.1.6 1.8 1.7 2 2.9.2 1.2-.2 2.5-1.1 3.3l-4 4.2z" fill="#ffffff" stroke-width="none" opacity="1"></path><path id="SvgjsPath15640" d="M188.9 76.6c.1.2.3.4.4.6a29.15 29.15 0 1 1-48.6 32.2c-.1-.2-.2-.4-.4-.6l-.7.4c.1.2.2.4.4.6 9.1 13.8 27.8 17.6 41.6 8.4s17.6-27.8 8.4-41.6c-.1-.2-.3-.4-.4-.6l-.7.6zM50.8 114.9c.1.1.1.3.2.4a19.74 19.74 0 1 1-35.5 17.3c-.1-.1-.1-.3-.2-.4l-.5.2c.1.1.1.3.2.4 4.9 10.1 17.1 14.2 27.1 9.3S56.3 125 51.4 115c-.1-.1-.1-.3-.2-.4l-.4.3zm69.5 69.3c0 .1-.1.3-.1.4-3.3 10.4-14.4 16.1-24.8 12.8S79.3 183 82.6 172.6c.1-.1.1-.3.2-.4l-.5-.2c-.1.1-.1.3-.2.4-3.4 10.7 2.5 22.1 13.2 25.5s22.1-2.5 25.5-13.1c.1-.1.1-.3.1-.4l-.6-.2zM166.1 5.7c.1-.1.3-.2.4-.2 9.4-5.5 21.5-2.3 27 7.1a19.76 19.76 0 0 1-7.5 27.2l.3.5c.1-.1.3-.1.4-.2 9.7-5.6 13-18.1 7.3-27.7-5.6-9.7-18.1-13-27.7-7.3-.1.1-.3.2-.4.2l.2.4zm-31.2 29.7c-.1.2-.2.4-.3.7C126 51.4 106.4 57 91 48.3S70 20.2 78.7 4.8c.1-.2.2-.4.4-.6l-.8-.4c-.1.2-.3.4-.4.6-8.9 15.8-3.2 35.9 12.7 44.7s35.9 3.2 44.8-12.7c.1-.2.2-.4.3-.7l-.8-.3z" fill="#ff8603" stroke-width="none" opacity="1"></path><path id="SvgjsPath15641" d="M78.3 31c-.1.1-.3.1-.4.2-9.6 5-13.3 16.9-8.3 26.5S86.5 71 96.1 65.9c.1-.1.3-.2.4-.2L78.3 31zm44.5 165.6c.1-.1.2-.2.4-.3 8.2-7.1 9.1-19.5 2.1-27.7-7.1-8.2-19.5-9.1-27.7-2.1-.1.1-.2.2-.4.3l25.6 29.8z" fill="#ffcb39" stroke-width="none" opacity="1"></path><path id="SvgjsPath15642" d="M77.7 29.7c-.1.1-.3.1-.4.2-10.4 5.4-14.4 18.1-9 28.4s18.1 14.3 28.5 8.9c.1-.1.3-.2.4-.2L77.7 29.7zm-4.9 8.4c0-.5.1-.9.5-1.2l2.8-2.5c.6-.5 1.4-.8 2.2-.7.8.1 1.5.6 1.8 1.3l.6 1.2 5.9 11.3-13.1-8.3c-.5-.2-.7-.6-.7-1.1zm-2.9 4.6.3-1.1c.2-.7.7-1.3 1.4-1.5.7-.2 1.4-.2 2.1.2L85.9 48l-12.6-.5c-1.2 0-2.2-.6-2.8-1.5-.7-1-.9-2.2-.6-3.3zm4.7 11.8c-1 .5-2.2.6-3.2.1s-1.8-1.4-2-2.5l-.4-1.2c-.2-.7 0-1.5.5-2s1.2-.9 1.9-.8l14.3.6-11.1 5.8zm2.1 8.1c-.7.1-1.4-.2-1.9-.8L74 61c-.8-.8-1.1-2-.9-3.1.2-1.1.9-2.1 1.9-2.6l11.2-5.9-7.7 12.1c-.4.6-1.1 1-1.8 1.1zm6.4 3.5-1.1-.3c-1.1-.3-2-1.2-2.3-2.2-.4-1.1-.3-2.3.3-3.2l6.8-10.7-.6 14.3c0 .7-.4 1.4-1 1.8-.6.4-1.4.6-2.1.3zm5.6.3c-.4.1-.9 0-1.3-.3-.3-.3-.6-.7-.5-1.2l.6-15.5 5.9 11.3.6 1.2c.4.7.4 1.5.1 2.3-.3.7-1 1.3-1.8 1.4l-3.6.8zm35.1 131.3c.1-.1.2-.2.4-.3a21.06 21.06 0 0 0-27.5-31.9c-.1.1-.2.2-.4.3l27.5 31.9zm2.9-9.3c.1.4.1.9-.2 1.3l-2.1 3.1c-.5.7-1.2 1.1-2 1.1-.8.1-1.6-.3-2.1-.9l-.9-1-8.3-9.6 14.6 5.1c.5.1.8.4 1 .9zm1.7-5.1-.1 1.2c-.1.7-.4 1.4-1.1 1.8-.6.4-1.4.5-2.1.2l-13.6-4.7 12.4-2.4c1.1-.2 2.3.1 3.1.9 1 .7 1.5 1.8 1.4 3zm-7.2-10.5c.9-.8 2-1.1 3.2-.8 1.1.2 2.1 1 2.6 2l.5 1.1c.3.7.3 1.4 0 2.1-.3.7-.9 1.1-1.7 1.3l-14.1 2.7 9.5-8.4zm-3.9-7.3c.7-.2 1.5-.1 2.1.3l1 .6c.9.6 1.5 1.7 1.6 2.8.1 1.1-.4 2.2-1.3 3l-9.6 8.2 4.7-13.6c.2-.6.8-1.1 1.5-1.3zm-7.1-2.1 1.2.1c1.2.1 2.2.7 2.8 1.6.6 1 .8 2.1.4 3.2l-4.2 11.9-2.7-14.1c-.1-.7.1-1.5.6-2 .5-.4 1.2-.7 1.9-.7zm-5.4 1.1c.4-.2.9-.2 1.3 0s.7.6.8 1l2.9 15.2-8.3-9.6-.9-1c-.5-.6-.7-1.4-.6-2.2s.7-1.4 1.4-1.8l3.4-1.6z" fill="#ffffff" stroke-width="none" opacity="1"></path><path id="SvgjsPath15643" d="M97.1 66.7c-.1.1-.3.2-.4.2-10.2 5.3-22.7 1.4-28.1-8.8S67.2 35.4 77.4 30c.1-.1.3-.1.4-.2l-.3-.5c-.1.1-.3.1-.4.2-10.4 5.5-14.5 18.4-9 28.8s18.4 14.5 28.8 9c.1-.1.3-.2.4-.2l-.2-.4zm-.6 99.3c.1-.1.2-.2.4-.3 8.7-7.5 21.8-6.5 29.3 2.2s6.5 21.8-2.2 29.3c-.1.1-.2.2-.4.3l.4.4c.1-.1.2-.2.4-.3 8.9-7.7 9.9-21.2 2.2-30.1s-21.2-9.9-30.1-2.2c-.1.1-.2.2-.4.3l.4.4z" fill="#edb018" stroke-width="none" opacity="1"></path><path id="SvgjsPath15644" d="M31 56.8c-14.3 0-26-11.7-26-26s11.7-26 26-26 26 11.7 26 26-11.7 26-26 26z" fill="#ffe964" stroke-width="none" opacity="1"></path><path id="SvgjsPath15645" d="M31 2.9a27.91 27.91 0 0 0 0 55.8 27.91 27.91 0 0 0 0-55.8zM8.9 21.3c.3-.5.8-.8 1.3-1 .4-.2.8-.2 1.2-.2.2 0 .4 0 .6.1l17.1 9.9H12.6c-1.5 0-2.9-.7-3.9-1.9-.9-1.2-1.2-2.8-.8-4.2l.1-.4c.3-.8.6-1.6.9-2.3zM8.2 32c.6-.9 1.6-1.3 2.7-1.3h18.7L11.7 41c-.5.3-1.2.3-1.7.1-.6-.2-1-.7-1.1-1.3L7.6 35c-.3-1-.1-2.1.6-3zm4-12.7c-.5-.3-.9-.8-1-1.4s.1-1.2.6-1.6l3.5-3.5c.6-.6 1.5-1 2.4-1h.5c.7.1 1.4.4 1.9.9l9.5 16.5-16.3-9.4c-.3-.2-.7-.3-1.1-.5zm8.2-7.7c-.3-.5-.4-1.2-.1-1.7.2-.6.7-1 1.3-1.1l4.8-1.3c.3-.1.6-.1.9-.1.7 0 1.5.2 2.1.7.6.4 1 1 1.2 1.7-.1.3-.1.7-.1 1v17.9l-9-15.5c-.2-.3-.4-.6-.7-.9l-.4-.7zM53 28c-.9 1.2-2.3 1.9-3.9 1.9H32.7l17-9.8c.6-.1 1.3-.1 1.9.1.9.4 1.6 1.1 1.8 2.1l.4 1.5c.4 1.5.1 3-.8 4.2zm-2.5-10.1c-.1.6-.4 1.1-1 1.4a3 3 0 0 0-1 .4l-16.3 9.4 9.5-16.5c.5-.5 1.2-.8 1.9-.9h.5c.9 0 1.8.4 2.4 1l3.5 3.5c.3.5.5 1.1.5 1.7zm-9.1-6.3-.4.6c-.3.3-.5.6-.7.9l-9 15.5V10.8c0-.3 0-.7-.1-1 .2-.7.6-1.3 1.2-1.7.6-.5 1.3-.7 2.1-.7.3 0 .6 0 .9.1l4.8 1.3c.6.2 1.1.6 1.3 1.1a2 2 0 0 1-.1 1.7zM11.6 43.5c.1-1 .7-1.8 1.5-2.3l16.5-9.5-8.4 14.5c-.8 1.3-2.1 2.2-3.6 2.4s-3-.3-4.1-1.4l-1.1-1.1c-.6-.7-.9-1.6-.8-2.6zm9.3 5.2 9.5-16.5V49c0 1.5-.7 2.9-1.9 3.9s-2.8 1.2-4.2.8l-1.5-.4c-1-.2-1.7-.9-2.1-1.8-.4-.9-.3-1.9.2-2.8zm12.4 4.1c-1.2-.9-1.9-2.3-1.9-3.9V32.2l9.5 16.5c.5.8.6 1.8.2 2.8-.4.9-1.1 1.6-2.1 1.8l-1.5.4c-1.5.4-3 .1-4.2-.9zm10.8-4.2c-1.5-.2-2.8-1.1-3.6-2.4l-8.4-14.5 16.5 9.5a3.11 3.11 0 0 1 .6 4.9l-1.1 1.1c-1 1.1-2.5 1.6-4 1.4zm7.7-7.5a2 2 0 0 1-1.7-.1L32.2 30.7h18.7c1.1 0 2.1.5 2.7 1.3.7.8.9 1.9.6 3l-1.3 4.8c-.2.6-.6 1-1.1 1.3z" fill="#ffffff" stroke-width="none" opacity="1"></path><path id="SvgjsPath15646" d="M31 59C15.4 59 2.7 46.4 2.7 30.8S15.4 2.5 31 2.5s28.3 12.7 28.3 28.3S46.6 59 31 59zm0-55.7C15.8 3.3 3.5 15.6 3.5 30.8S15.8 58.3 31 58.3 58.5 46 58.5 30.8 46.2 3.3 31 3.3z" fill="#eac71b" stroke-width="none" opacity="1"></path><path id="SvgjsPath15647" d="M51.9 28c-6.7 0-12.2-5.5-12.2-12.2S45.2 3.7 51.9 3.7s12.2 5.5 12.2 12.2S58.6 28 51.9 28zM55 163.3c-6.7 0-12.2-5.5-12.2-12.2 0-6.7 5.5-12.2 12.2-12.2s12.2 5.5 12.2 12.2c-.1 6.7-5.5 12.2-12.2 12.2zm85-70.6a17.2 17.2 0 1 1 17.2-17.2c0 9.5-7.8 17.2-17.2 17.2zM95.7 200.1v-.2c-.1-5.4-4.6-9.8-10-9.8-5.4.1-9.8 4.6-9.8 10v.2l19.8-.2z" fill="#d8f94b" stroke-width="none" opacity="1"></path><path id="SvgjsPath15648" d="M51.9 2.8c-7.2 0-13.1 5.8-13.1 13.1S44.6 29 51.9 29 65 23.1 65 15.9 59.1 2.8 51.9 2.8zm-10.4 8.6c.2-.2.4-.4.6-.5.2-.1.4-.1.6-.1h.3l8 4.6h-7.7c-.7 0-1.4-.3-1.8-.9-.4-.6-.6-1.3-.4-2v-.1c.1-.3.2-.6.4-1zm-.3 5c.3-.4.8-.6 1.3-.6h8.7l-8.3 4.8c-.2.1-.5.2-.8 0-.3-.1-.5-.3-.5-.6l-.6-2.2c-.2-.5-.1-1 .2-1.4zm1.9-5.9c-.2-.1-.4-.4-.5-.7s.1-.6.3-.8l1.6-1.6c.3-.3.7-.5 1.1-.5h.2c.3 0 .6.2.9.4l4.5 7.7-7.6-4.4c-.2 0-.3-.1-.5-.1zm3.8-3.6c-.1-.2-.2-.5 0-.8.1-.3.3-.5.6-.5l2.2-.6c.1 0 .3-.1.4-.1.3 0 .7.1 1 .3.3.2.5.5.5.8 0 .2-.1.3-.1.5v8.4l-4.2-7.3c-.1-.2-.2-.3-.3-.4l-.1-.3zm15.3 7.7c-.4.6-1.1.9-1.8.9h-7.7l8-4.6c.3-.1.6-.1.9.1.4.2.7.5.8 1l.2.7c.1.6 0 1.3-.4 1.9zM61 9.8c0 .3-.2.5-.5.7-.2 0-.3.1-.5.2l-7.6 4.4 4.5-7.7c.2-.2.5-.4.9-.4h.2c.4 0 .8.2 1.1.5L60.7 9c.2.2.3.5.3.8zm-4.3-2.9-.2.3c-.1.1-.2.3-.3.4L52 14.9V6.5c0-.2 0-.3-.1-.5.1-.3.3-.6.5-.8.3-.2.6-.3 1-.3.1 0 .3 0 .4.1l2.2.6c.3.1.5.3.6.5.3.2.3.5.1.8zM42.8 21.8c.1-.5.3-.9.7-1.1l7.7-4.4-3.9 6.8c-.4.6-1 1-1.7 1.1s-1.4-.1-1.9-.6l-.5-.6c-.3-.3-.5-.7-.4-1.2zm4.3 2.4 4.5-7.7v7.8c0 .7-.3 1.4-.9 1.8-.6.4-1.3.6-2 .4l-.7-.1c-.4-.1-.8-.4-1-.9-.1-.4-.1-.9.1-1.3zm5.9 2c-.6-.4-.9-1.1-.9-1.8v-7.8l4.5 7.7c.2.4.3.9.1 1.3-.2.4-.5.7-1 .9l-.7.2c-.8.1-1.5-.1-2-.5zm5-2c-.7-.1-1.3-.5-1.7-1.1l-3.9-6.8 7.7 4.5c.4.2.7.6.7 1.1.1.5-.1.9-.4 1.2l-.5.5c-.5.4-1.2.7-1.9.6zm3.6-3.5c-.3.1-.6.1-.8 0l-8.3-4.8h8.7c.5 0 1 .2 1.3.6s.4.9.3 1.4l-.6 2.2c-.2.2-.3.5-.6.6zM55 138c-7.2 0-13.1 5.9-13.1 13.1 0 7.2 5.8 13.1 13.1 13.1s13-5.9 13-13.1c0-7.2-5.8-13.1-13-13.1zm-10.4 8.7c.2-.2.4-.4.6-.5.2-.1.4-.1.6-.1h.3l8 4.6h-7.7c-.7 0-1.4-.3-1.8-.9-.4-.6-.6-1.3-.4-2v-.1c.1-.3.2-.7.4-1zm-.3 5c.3-.4.8-.6 1.3-.6h8.7l-8.3 4.8c-.2.1-.5.2-.8.1-.3-.1-.5-.3-.5-.6l-.6-2.2c-.2-.6-.1-1.1.2-1.5zm1.9-5.9c-.2-.1-.4-.4-.5-.7s.1-.6.3-.8l1.6-1.6c.3-.3.7-.5 1.1-.5h.2c.3 0 .6.2.9.4l4.5 7.7-7.6-4.4c-.2 0-.4-.1-.5-.1zm3.8-3.7c-.1-.2-.2-.5 0-.8.1-.3.3-.5.6-.5l2.2-.6c.1 0 .3-.1.4-.1.3 0 .7.1 1 .3.3.2.5.5.5.8 0 .1-.1.3-.1.5v8.4l-4.2-7.3c-.1-.1-.2-.3-.3-.4l-.1-.3zm15.2 7.7c-.4.6-1.1.9-1.8.9h-7.7l8-4.6c.3-.1.6-.1.9.1.4.2.7.5.8 1l.2.7c.2.6.1 1.4-.4 1.9zm-1.1-4.7c0 .3-.2.5-.5.7-.2 0-.3.1-.5.2l-7.6 4.4 4.5-7.7c.2-.2.5-.4.9-.4h.2c.4 0 .8.2 1.1.5l1.6 1.6c.2.1.3.4.3.7zm-4.3-3-.2.3c-.1.1-.2.3-.3.4l-4.2 7.3v-8.4c0-.2 0-.3-.1-.5.1-.3.3-.6.5-.8.3-.2.6-.3 1-.3.1 0 .3 0 .4.1l2.2.6c.3.1.5.3.6.5.3.3.3.6.1.8zm-13.9 15c.1-.4.3-.9.7-1.1l7.7-4.4-3.9 6.8c-.4.6-1 1-1.7 1.1s-1.4-.1-1.9-.6l-.5-.5c-.3-.4-.5-.9-.4-1.3zm4.3 2.4 4.5-7.7v7.8c0 .7-.3 1.4-.9 1.8-.6.4-1.3.6-2 .4l-.7-.2c-.4-.1-.8-.4-1-.9-.1-.3-.1-.8.1-1.2zm5.8 2c-.6-.4-.9-1.1-.9-1.8v-7.8l4.5 7.7c.2.4.3.9.1 1.3-.2.4-.5.7-1 .9l-.7.2c-.7 0-1.4-.1-2-.5zm5.1-2c-.7-.1-1.3-.5-1.7-1.1l-3.9-6.8 7.7 4.4c.4.2.7.6.7 1.1.1.4-.1.9-.4 1.2l-.5.5c-.5.5-1.2.8-1.9.7zm3.6-3.6c-.3.1-.6.1-.8-.1l-8.3-4.8h8.7c.5 0 1 .2 1.3.6.3.4.4.9.3 1.4l-.6 2.2c-.2.4-.4.6-.6.7zM140 57.1c-10.2 0-18.4 8.2-18.4 18.4s8.2 18.4 18.4 18.4 18.4-8.2 18.4-18.4-8.3-18.4-18.4-18.4zm-14.7 12.1c.2-.3.5-.5.9-.7.3-.1.5-.2.8-.2.1 0 .3 0 .4.1l11.3 6.5h-10.8c-1 0-1.9-.5-2.6-1.3s-.8-1.8-.6-2.8v-.2c.2-.4.4-.9.6-1.4zm-.4 7.1c.4-.6 1.1-.9 1.8-.9H139l-11.8 6.8c-.3.2-.8.2-1.1.1s-.7-.5-.8-.9l-.8-3.2c-.2-.6-.1-1.3.4-1.9zm2.7-8.4c-.3-.2-.6-.6-.6-.9-.1-.4.1-.8.4-1.1l2.3-2.3c.4-.4 1-.7 1.6-.7h.3c.5.1.9.3 1.2.6l6.3 10.9-10.8-6.2c-.2-.1-.5-.2-.7-.3zm5.3-5.1c-.2-.3-.2-.8-.1-1.1.1-.4.5-.7.9-.8l3.2-.8c.2 0 .4-.1.6-.1.5 0 1 .2 1.4.5.4.3.6.7.8 1.1-.1.2-.1.4-.1.7v11.8l-5.9-10.3c-.1-.2-.3-.4-.4-.6l-.4-.4zm21.6 10.9c-.6.8-1.5 1.3-2.6 1.3H141l11.2-6.5c.4-.1.8-.1 1.2.1.6.2 1 .8 1.2 1.4l.3 1c.4.9.2 1.9-.4 2.7zm-1.7-6.7c-.1.4-.3.8-.6.9-.2.1-.5.1-.7.3l-10.8 6.2 6.3-10.9c.3-.3.8-.5 1.2-.6h.3c.6 0 1.2.2 1.6.7l2.3 2.3c.3.3.5.7.4 1.1zm-6-4.2-.2.4c-.2.2-.3.4-.4.6l-5.9 10.3V62.3c0-.2 0-.5-.1-.7.1-.4.4-.8.8-1.1.4-.3.9-.5 1.4-.5.2 0 .4 0 .6.1l3.2.8c.4.1.7.4.9.8 0 .4-.1.8-.3 1.1zm-19.6 21.1c.1-.6.4-1.2 1-1.5l10.9-6.3-5.5 9.6c-.5.9-1.4 1.4-2.4 1.6-1 .1-2-.2-2.7-.9l-.7-.7c-.5-.5-.7-1.2-.6-1.8zm6 3.4 6.3-10.9v11.1c0 1-.5 1.9-1.3 2.6-.8.6-1.8.8-2.8.6l-1-.3c-.6-.2-1.1-.6-1.4-1.2-.1-.6-.1-1.3.2-1.9zm8.3 2.8c-.8-.6-1.3-1.5-1.3-2.6v-11l6.3 10.9c.3.6.4 1.2.1 1.8s-.8 1-1.4 1.2l-1 .3c-.9.2-1.9 0-2.7-.6zm7.1-2.9c-1-.1-1.9-.7-2.4-1.6l-5.5-9.6 10.9 6.3c.6.3.9.9 1 1.5s-.1 1.3-.6 1.7l-.7.7c-.7.9-1.7 1.2-2.7 1zm5.1-4.9c-.4.2-.8.1-1.1-.1l-11.8-6.8h12.3c.7 0 1.4.3 1.8.9s.6 1.3.4 2l-.9 3.2c-.1.3-.4.6-.7.8zM96.4 200.1v-.2a10.6 10.6 0 0 0-21.2.2v.2l21.2-.2zm-2.7-4.2c.2.1.4.3.4.5l.5 1.8c.1.4 0 .8-.2 1.1-.2.3-.6.5-1 .5h-.7l-6.4.1 6.7-4c.3 0 .5-.1.7 0zm-1.4-2.3.4.4c.3.3.4.6.3 1 0 .4-.2.7-.6.9l-6.2 3.7 3.1-5.6a1.95 1.95 0 0 1 3-.4zm-6.4-.6c0-.6.2-1.1.7-1.5s1-.5 1.6-.3l.6.1c.4.1.7.3.8.7s.1.7-.1 1.1l-3.5 6.3-.1-6.4zm-4.1-.9c.1-.4.4-.6.8-.7l.6-.2c.6-.2 1.2-.1 1.6.3s.7.9.7 1.5l.1 6.4-3.7-6.2c-.2-.4-.2-.8-.1-1.1zm-3 2.1.4-.4c.4-.4 1-.6 1.5-.5.6.1 1.1.4 1.4.9l3.2 5.5L79 196c-.3-.2-.5-.5-.6-.9 0-.3.1-.7.4-.9zm-1.4 2.4c.1-.2.2-.4.4-.5.2-.1.4-.1.7 0l6.8 3.8-6.4.1h-.7c-.4 0-.8-.2-1-.5s-.3-.7-.2-1.1l.4-1.8z" fill="#ffffff" stroke-width="none" opacity="1"></path><path id="SvgjsPath15649" d="M51.9 2.2c-7.5 0-13.6 6.1-13.6 13.6s6.1 13.6 13.6 13.6 13.6-6.1 13.6-13.6S59.4 2.2 51.9 2.2zm0 26.2c-6.9 0-12.5-5.6-12.5-12.5S45 3.3 51.9 3.3s12.5 5.6 12.5 12.5-5.6 12.6-12.5 12.6zM55 137.5c-7.5 0-13.6 6.1-13.6 13.6s6.1 13.6 13.6 13.6 13.6-6.1 13.6-13.6-6.1-13.6-13.6-13.6zm0 26.1a12.5 12.5 0 1 1 0-25 12.5 12.5 0 0 1 0 25zm85-107.3a19.2 19.2 0 1 0 .01 38.41A19.2 19.2 0 0 0 140 56.3zm0 36.8c-9.7 0-17.7-7.9-17.7-17.7s7.9-17.7 17.7-17.7 17.6 7.9 17.6 17.7-7.9 17.7-17.6 17.7zM75.3 200.3v-.2c-.1-5.8 4.6-10.5 10.3-10.6 5.8-.1 10.5 4.6 10.6 10.4v.2h.3v-.2c-.1-5.9-4.9-10.7-10.9-10.6-5.9.1-10.7 4.9-10.6 10.9v.2l.3-.1z" fill="#8ab21b" stroke-width="none" opacity="1"></path></g><g id="svga-group-humanwrap-move" transform="matrix(1,0,0,1,0,-4)"><g id="svga-group-humanwrap" transform="matrix(1.1500005000000004,0,0,1.1500005000000004,-14.910051359398878,-18.19944935939222)"><g id="svga-group-hair-back-move" transform="matrix(1,0,0,1,0,0)"><g id="svga-group-hair-back"></g></g><g id="svga-group-humanbody-back"><path id="SvgjsPath10730" d="M166.5 181.1c-10.9-6.6-27.6-8.4-35-12.1-4.9-2.5-9.1-4.7-8.9-17.8s1.9-42.4 1.9-42.4H75.4s1.6 29.4 1.9 42.4-4.2 15.6-8.9 17.8c-7.4 3.5-24.1 5.4-35 12.1-10.8 6.6-10 18.9-10 18.9v19.7h153.3V200c-.1 0 .7-12.3-10.2-18.9z" fill="#f0c7b1" stroke-width="none" opacity="1" stroke="none"></path></g><g id="svga-group-chinshadow-single"><path id="SvgjsPath10726" d="M77.2 155.2c5.1 2.8 7.7 4.2 9.6 6.5 2.6 3.2 10.3 4.4 13.2 4.4 3 0 10.7-1.2 13.2-4.4 1.9-2.3 4.5-3.7 9.5-6.4-.1-1.2-.1-2.6-.1-4.1.2-13.1 1.9-42.4 1.9-42.4H75.4s1.6 29.4 1.9 42.4c0 1.5 0 2.8-.1 4z" fill="#d19271" stroke-width="none" opacity="0.65" stroke="none"></path></g><g id="svga-group-humanbody-front"><path id="SvgjsPath10731" d="M78.7 156.8c.5 4.8 1.7 9.4 3.1 13.9.8 2.3 1.6 4.6 2.6 6.9.8 2 1.7 4.2 3.1 5.9.3.4 1 0 .9-.5-.5-2.2-1.6-4.3-2.4-6.4-.9-2.2-1.7-4.4-2.5-6.6-1.5-4.4-2.8-8.9-4.1-13.3-.2-.4-.8-.3-.7.1zm41.3-1c-1.3 8.2-3.9 16.1-5.4 24.2-.1.4.4.5.6.2 3.1-7.7 4.1-16.1 5.1-24.3-.1-.2-.3-.2-.3-.1zm-25.8 11.9c-.9 3.6 1.9 8.6 6.2 7.6.5-.1.4-.8 0-1-1.4-.5-2.9-.9-3.9-2.1-1.1-1.2-1.5-2.9-1.4-4.5 0-.4-.8-.5-.9 0z" fill="#d19271" stroke-width="none" opacity="1" stroke="none"></path><path id="SvgjsPath10732" d="M177.3 219.7c-.1-6.6-.3-13.1-.3-19.7l-.3-.3c.1 0 .1 0 .2.1s.1.2.1.1v-1.4c0-.5-.1-.9-.1-1.4-.1-.9-.3-1.9-.5-2.8-.5-1.8-1.1-3.6-2-5.3-1.7-3.4-4.4-6.2-7.7-8.1-3.6-2.2-7.6-3.8-11.6-5.1-4-1.3-8.1-2.4-12.1-3.5-4-1.2-8.1-2.2-11.8-4.2-1.9-1-3.6-2.1-4.8-3.6-1.2-1.6-1.9-3.5-2.3-5.5-.8-4-.4-8.2-.3-12.4l.7-12.6 1.5-25.2.1-1.4h-1.4c-8.2 0-16.4 0-24.6.1l-24.6.3h-.9l.1.9c.8 11.9 1.6 23.8 2.1 35.7.1 3 .3 6 .2 8.9-.1 2.9-.4 5.9-1.6 8.6-.6 1.3-1.4 2.5-2.4 3.5s-2.3 1.8-3.6 2.4c-2.6 1.3-5.4 2.2-8.3 3-5.8 1.5-11.6 2.8-17.3 4.7-2.8.9-5.7 2-8.4 3.4-1.3.7-2.7 1.4-4 2.4-1.3.9-2.4 1.9-3.5 3.1-2.1 2.3-3.6 5.2-4.5 8.1-.5 1.5-.8 3-1 4.6-.1.8-.1 1.6-.1 2.4v2.3l-.2 17.9v1.3h1.4l38.3.2c12.8.1 25.5.1 38.3 0 12.8-.1 25.6-.1 38.3-.3 12.8-.2 25.6-.5 38.3-.7h.6v-.5zm-77.2-1.6H61.8l-37 .2-.1-16.6v-2.2c0-.7 0-1.4.1-2.1.1-1.4.4-2.8.8-4.2.8-2.7 2.1-5.3 3.9-7.5.9-1.1 2-2.1 3.1-2.9 1.1-.9 2.4-1.6 3.7-2.3 2.6-1.4 5.3-2.5 8.1-3.5 5.6-2 11.4-3.4 17.1-5.1 2.9-.8 5.8-1.7 8.5-3.1 1.3-.7 2.7-1.5 3.8-2.6 1.1-1.1 2-2.4 2.6-3.9 1.2-2.9 1.5-5.9 1.6-8.9 0-3-.1-6-.2-9l-1.3-34.8 23.5.4c7.7.1 15.4.1 23.1.1-.4 7.9-.8 15.9-1.1 23.8-.2 4.2-.2 8.4-.3 12.6 0 4.2-.2 8.5.8 12.8.5 2.1 1.3 4.2 2.8 6 1.4 1.7 3.4 2.9 5.3 3.8 3.9 1.9 8 2.8 12.1 3.8s8.2 2 12.2 3.3c4 1.3 7.9 2.8 11.5 5 3.2 1.9 5.8 4.7 7.5 8 .9 1.6 1.5 3.4 1.9 5.2.2.9.4 1.8.4 2.7.1.5.1.9.1 1.4V200l-.3 19c-12.6-.2-25.1-.5-37.7-.7-12.7-.1-25.5-.1-38.2-.2z" fill="#c27b55" stroke-width="none" opacity="1" stroke="none"></path></g><g id="svga-group-clothes-single"><path id="SvgjsPath14988" d="M180.3 220.1c0-17.5-1.6-28.7-1.6-28.7-3.2-15.2-22.5-16.1-31.1-18.5-2.8-.8-13.9-4.5-13.9-4.5-4-8.6-9.1-13.4-9.1-13.4s1.1 16.6-4.8 20.7c-2.8 1.9-8.9 3.1-11.2 5-2.4 2-5.9 10.2-5.9 10.2s-8.5-12.5-10.7-12.3c-4.7.5-8 0-9.2-.4-6.7-2-6.7-23.4-6.7-23.4s-6.5 4.6-9.4 12.4c-3.2 1.4-11 3.2-15 4.7-8.3 3.1-27.5 5.6-30.5 19.6 0 0-1.6 11.2-1.6 28.7l160.7-.1z" fill="#eb2f64" stroke-width="none" opacity="1" stroke="none"></path><path id="SvgjsPath14989" d="M180.6 210.1c0-3.3-.1-6.7-.3-10-.1-1.7-.2-3.3-.3-5l-.2-2.5-.1-1.3c-.1-.4-.2-.9-.3-1.3-.9-3.4-2.8-6.5-5.4-8.9-2.6-2.3-5.7-4-8.9-5.1-3.2-1.2-6.5-2-9.8-2.7 0 0-17.5-4.4-20.3-5.9-1.1-2.4-2.4-4.7-3.9-6.9-.8-1.2-1.6-2.3-2.5-3.4-.9-1.1-1.7-1.9-2.8-2.9-.2-.2-1-.7-1.3-.7-.7-.1-1 .6-1.1 1.3v.1c-.4 3.8-.6 14.2-1.3 15.9-.8 1.7-1.8 3.2-3.2 4-1.5.9-3.4 1.5-5.2 2.2-.9.3-1.9.7-2.8 1.1-1 .4-1.9.9-2.9 1.6-1 .9-1.5 1.7-2.1 2.6-.6.9-1.1 1.8-1.5 2.6l-1.8 3.6c-2.2-3-4.4-6-7-8.7-.4-.4-.8-.8-1.3-1.2-.2-.2-.5-.4-.8-.6-.3-.2-.6-.4-1.2-.4h-.6l-.4.1-.8.1c-.5.1-1.1.1-1.6.1-1.1 0-2.1 0-3.2-.1-1-.1-2.2-.2-3-.5-.8-.3-1.6-1-2.2-1.8-.6-.8-1.2-1.7-1.7-2.6-1-1.9-1.6-13.9-2.3-18.2 0-.1-.1-.1-.1-.2-.2-.2-.5-.2-.7-.1-1.1.8-2.1 1.7-3 2.7s-1.8 2-2.6 3c-.8 1.1-1.5 2.2-2.2 3.3-.7 1.1-1.2 2.2-1.7 3.4-3.8 1.7-10.8 3-14.7 4.4-4 1.4-8.1 2.3-12.2 3.6-4.1 1.3-8.2 2.9-11.8 5.5-1.8 1.3-3.4 2.9-4.8 4.7-1.3 1.8-2.3 4-2.8 6.2v.1c-.3 2.4-.6 4.8-.8 7.2-.2 2.4-.4 4.8-.5 7.2-.1 2.4-.3 4.8-.3 7.2-.1 2.4-.1 4.8-.1 7.2 0 .8.6 1.4 1.4 1.4l40.5.2c13.5 0 27-.1 40.4-.2l40.2-.5 19.9-.3 19.8-.4c.2-3.5.2-6.9.2-10.2zM120.2 177c1-.6 1.9-1.5 2.5-2.4.7-.9 1.2-1.8 1.7-2.8.9-1.9.9-10.8 1.3-13.9.2.3.4.5.7.8.8 1 2.7 3 3.4 4.1 3.5 5.5 5.5 12.6 5.7 14 0 0 2.7 12.7 3.1 17.1-1.7-.8-3.4-1.8-4.9-2.8-2.1-1.4-4.1-2.9-6.1-4.4-2-1.6-3.9-3.1-5.8-4.9-.9-.9-1.8-1.8-2.9-2.5-.7-.4-1.5-.8-2.4-.9 1.2-.2 2.5-.7 3.7-1.4zm-22.1 19.1c-.6-1.7-1.3-3.3-2.2-4.9-.8-1.5-1.7-3-2.8-4.3.4 0 .8.1 1.2.1.9.1 1.9.1 2.8.2h1.7c1 1.4 1.9 2.7 2.8 4.1-1.2 1.4-2.3 2.9-3.4 4.4 0 .2 0 .2-.1.4zm-9.2-16.5c.6 0 1.1 0 1.7-.1l.8-.1H92s.2.1.3.2c.2.1.4.3.5.4.4.3.7.7 1.1 1.1 1.6 1.8 3.2 3.8 4.6 5.8-1.4-.2-2.8-.5-4.3-.7-1.8-.3-3.7-.6-5.5-1-1.8-.4-3.6-.8-5.4-1.3-1.7-.5-3.4-.9-5-1.5l.1-.1c.8-1 1.7-1.9 2.7-2.6.5-.3 1-.6 1.5-.8 1 .3 1.8.4 2.8.5 1.3.2 2.4.2 3.5.2zm-21.7-12.3c.5-1.2 1-2.4 1.6-3.5.6-1.1 1.3-2.2 2.1-3.2s1.6-2 2.6-2.9c.7-.7 1.5-1.4 2.2-2 .1 6.3.8 15.8 1.8 17.9.5 1 1.1 2 1.8 2.9.7.9 1.6 1.8 2.8 2.3.2.1.3.1.5.1-.5.2-1 .4-1.4.7-1.1.6-2 1.6-2.9 2.5-1.8 1.7-3.8 3.3-5.8 4.9s-4 3.1-6.1 4.4c-1.6 1-3.3 2-5 2.8 2.2-18.3 5.7-26.8 5.8-26.9zm-7.7 51.2-38.5.2c0-4.3.1-8.6.2-12.9.1-2.4.2-4.8.4-7.1.2-2.4.4-4.7.6-7.1.4-1.9 1.2-3.8 2.3-5.4 1.1-1.6 2.5-3.1 4.2-4.4.3-.2.5-.4.8-.6 1.6 2.9 3.3 5.7 5 8.5 1.8 2.9 3.6 5.8 5.5 8.7.5.8.9 1.4 1.1 2.2.3.8.5 1.6.6 2.4.4 1.6.6 3.3.8 5l.6 5.1c.2 1.7.3 3.4.5 5.1v-5.1l-.3-5.1c-.1-1.7-.4-3.4-.7-5.1-.2-.9-.4-1.7-.6-2.6-.2-.9-.7-1.7-1.2-2.4-1.9-2.9-3.7-5.8-5.7-8.6-1.8-2.7-3.7-5.4-5.6-8.1 3.1-2.2 6.7-3.7 10.3-5 4-1.4 8.1-2.4 12.2-3.9 3.9-1.6 10.1-2.6 13.9-4.4-1.8 4.4-3.9 10.7-6.6 27.8 0 .2 0 .4.1.6.2.5.8.7 1.3.5 2.4-1.2 4.5-2.6 6.6-4.1 2-1.6 4-3.2 5.9-4.9 1.8-1.7 3.7-3.3 5.3-5.2 1.5.9 3.2 1.6 4.8 2.2 1.8.6 3.6 1.1 5.4 1.5 1.4.3 2.8.5 4.1.6.6 1.7 1.3 3.3 2.2 4.8.9 1.6 1.8 3.1 3 4.5-.1.1-.2.3-.2.5-.1.4-.1.7-.2 1.1-.1.7-.1 1.4-.1 2.1v4.1c.1 2.7.2 5.4.4 8.1l.3 4.1c.1.9.2 1.8.3 2.6-13-.2-26-.3-39-.3zm39.9.3h-.7v-6.7l-.2-8.1c0-1.4-.1-2.7-.1-4 0-.7 0-1.3.1-2s.1-1.2.5-1.8c.6-1.2 1.4-2.3 2.2-3.4l.8-1.1c.1.1.2.2.4.3.6.3 1.3 0 1.6-.6.6-1.3 1.3-2.6 1.9-3.9 1.2 0 2.3-.1 3.4-.3 1.4-.2 2.8-.6 4.2-1-1.8 2.4-3.5 4.9-5.2 7.4-.9 1.3-1.8 2.6-2.7 4l-.7 1-.3.5c-.1.1-.3.5-.3.7-.2.9-.2 1.7-.3 2.5-.1 3.2.1 6.4.3 9.6.2 2.4.4 4.8.7 7.1l-5.6-.2zm40.2.5-34.3-.4-.1-2.4-.1-4.8c-.1-3.2-.2-6.4-.1-9.5 0-.8.1-1.6.2-2.3.1-.2 0-.2.2-.4l.3-.5.6-1c.8-1.4 1.7-2.7 2.5-4.1 1.6-2.6 3.1-5.1 4.6-7.8 1.4-.4 2.8-.9 4.1-1.5 1.3-.6 2.7-1.2 3.9-2l-4.2 1.2c-1.4.4-2.8.9-4.2 1.3l-4.2 1.2c-1 .3-2.1.5-3.1.8.2-.3.3-.7.5-1 .5-.9.9-1.7 1.5-2.5.5-.8 1.1-1.6 1.6-2 .6-.4 1.4-.9 2.3-1.2.9-.4 1.8-.7 2.7-1 .6-.2 1.2-.4 1.8-.7.8.2 1.7.6 2.4 1.1 1.1.7 1.9 1.6 2.7 2.6 1.7 1.9 3.6 3.6 5.4 5.3 1.9 1.7 3.8 3.3 5.9 4.9 2.1 1.5 4.2 2.9 6.6 4.1.2.1.4.1.6.1.5-.1.9-.6.8-1.1-.8-5-3.9-22.1-5.7-26.1 2.6 1.4 26.2 7.5 29.2 8.6 2.1.8 4.2 1.7 6.1 2.9-2 2.7-3.9 5.5-5.8 8.3-1.9 2.8-3.8 5.7-5.7 8.6-.4.7-1 1.5-1.2 2.4-.3.9-.5 1.7-.6 2.6-.3 1.7-.6 3.4-.7 5.1l-.3 5.1c0 1.7-.1 3.4 0 5.1.2-1.7.3-3.4.5-5.1l.6-5.1c.2-1.7.5-3.4.9-5l.6-2.4c.2-.8.6-1.4 1.1-2.2 1.8-2.9 3.7-5.8 5.5-8.7 1.8-2.9 3.5-5.8 5.1-8.7.8.5 1.6 1 2.3 1.6 2.4 2 4.2 4.7 5.1 7.8l.3 1.1.2 1.2.3 2.5.5 4.9c.3 3.3.6 6.6.8 9.9l.5 9.9-40.5-.7zm-37.8-21.9c.7 0 1.2.5 1.2 1.2s-.5 1.2-1.2 1.2-1.2-.5-1.2-1.2.5-1.2 1.2-1.2zm9.1-15.2c.7 0 1.2.5 1.2 1.2s-.5 1.2-1.2 1.2-1.2-.5-1.2-1.2.6-1.2 1.2-1.2zM102 216c.7 0 1.2.5 1.2 1.2s-.5 1.2-1.2 1.2-1.2-.5-1.2-1.2.5-1.2 1.2-1.2z" fill="#cc003a" stroke-width="none" opacity="1" stroke="none"></path></g><g id="svga-group-head" transform="matrix(1,0,0,1,0,0)"><g id="svga-group-ears-left-move" transform="matrix(1,0,0,1,0,0)"><g id="svga-group-ears-left"><path id="SvgjsPath11987" d="M62 92.9c-.2-.3-3.3-4.3-5.9-6.7-2.6-2.4-3.4-2.4-4.6-.9-1.3 1.5-2.9 9.1-2.5 12.4.4 3.4 3.6 8.7 5.2 11.7 1.7 3 3.3 6.7 5.1 6.3 1.9-.4 4.4-4.6 5.7-7.7 1.3-3.1.5-10.8-3-15.1z" fill="#f0c7b1" stroke-width="none" opacity="1" stroke="none"></path><path id="SvgjsPath11988" d="M65.8 102c.1.9.2 1.7.2 2.6s0 1.7-.2 2.6c-.1.4-.2.9-.3 1.3-.1.4-.3.7-.4 1.1-.3.7-.6 1.4-1 2.1-.7 1.3-1.5 2.6-2.6 3.6-.5.5-1.1 1-1.8 1.3-.4.1-.9.1-1.3 0-.4-.2-.8-.5-1.1-.8-1.2-1.3-1.9-2.8-2.7-4.3-.7-1.5-1.5-2.9-2.2-4.3-.7-1.5-1.5-2.9-2.1-4.4-.3-.8-.7-1.5-.9-2.3-.3-.8-.5-1.6-.6-2.5-.2-1.7 0-3.4.1-5 .2-1.6.5-3.2.8-4.8.2-.8.4-1.6.8-2.3l.3-.6c.1-.2.3-.4.4-.5.2-.3.5-.6.9-.8.3-.2.8-.3 1.2-.3.4.1.8.3 1.1.5.7.4 1.2 1 1.8 1.5 2.2 2.2 4 4.8 5.9 7.2 1.9 2.4 3.2 5.7 3.7 9.1zM55.7 86.4c-1.1-.9-2.4-1.9-3.1-1.2-.2.1-.4.4-.6.6l-.3.3c-.1.1-.1.3-.2.4-.3.6-.5 1.3-.8 2-.5 1.4-.9 2.9-1.1 4.5-.3 1.5-.5 3.1-.4 4.7.1.8.3 1.6.6 2.3.3.8.6 1.5.9 2.2.7 1.5 1.5 2.8 2.3 4.2.8 1.4 1.7 2.7 2.5 4.1.4.7.8 1.4 1.2 2s.8 1.3 1.3 1.7c.5.4.9.6 1.3.4.5-.2.9-.6 1.4-1.1.9-1 1.6-2.1 2.3-3.4.4-.6.7-1.3 1-1.9.2-.3.3-.7.4-1l.2-.5c0-.2.1-.3.1-.5.3-1.4.4-3 .3-4.6s-.4-3.2-.9-4.8c-.5-1.6-1.2-3-2.2-4.2-1.9-2.1-4-4.3-6.2-6.2z" fill="#e1ac8f" stroke-width="none" opacity="1" stroke="none"></path><path id="SvgjsPath11989" d="M51.2 99.4c-.3-2.3-.5-7.8.8-9.6 2.2-2.9 6 6.4 6.9 9.3 0 .1.1.2.1.3.2.3-.1.7-.4.6-.4-.2-.9-.6-1.3-.8-1.1-.5-1.6.5-1.3 1.8.4 1.8 1.4 2.9 2.2 4.3.1.2 0 .4-.2.3-1.6-.9-3.5-4.5-3.1-6.6.3-2 1.9-1.8 3.1-.8-.7-1.7-1.5-3.3-2.5-4.8-.6-.9-1.2-2-2.2-2.2-1.2-.2-1 .3-1.2 1.8-.8 4.8-.3 10.4 2.5 14.5.1.1 0 .2-.1.1-1.8-2.3-3-4.9-3.3-8.2z" fill="#d19271" stroke-width="none" opacity="1" stroke="none"></path></g></g><g id="svga-group-ears-right-move" transform="matrix(1,0,0,1,0,0)"><g id="svga-group-ears-right"><path id="SvgjsPath11990" d="M138 92.9c.2-.3 3.3-4.3 5.9-6.7 2.6-2.4 3.4-2.4 4.6-.9 1.3 1.5 2.9 9.1 2.5 12.4s-3.6 8.7-5.2 11.7c-1.7 3-3.3 6.7-5.1 6.3-1.9-.4-4.4-4.6-5.7-7.7s-.5-10.8 3-15.1z" fill="#f0c7b1" stroke-width="none" opacity="1" stroke="none"></path><path id="SvgjsPath11991" d="M138 92.9c1.9-2.4 3.8-5 5.9-7.2.5-.5 1.1-1.1 1.8-1.5.3-.2.7-.4 1.1-.5.4-.1.9.1 1.2.3.3.2.6.5.9.8.1.1.2.3.4.5l.3.6c.3.7.6 1.5.8 2.3.4 1.6.7 3.2.8 4.8.2 1.6.3 3.3.1 5-.1.9-.4 1.7-.6 2.5-.3.8-.6 1.6-.9 2.3-.7 1.5-1.4 3-2.1 4.4-.8 1.5-1.5 2.9-2.2 4.3-.8 1.4-1.4 3-2.7 4.3-.3.3-.7.6-1.1.8-.4.2-.9.2-1.3 0-.8-.3-1.3-.8-1.8-1.3-1-1.1-1.8-2.3-2.6-3.6-.4-.7-.7-1.4-1-2.1-.2-.4-.3-.7-.4-1.1-.1-.4-.3-.8-.3-1.3-.1-.9-.2-1.7-.2-2.6s.1-1.7.2-2.6c.4-3.4 1.7-6.7 3.7-9.1zm.1.1c-1 1.2-1.7 2.7-2.2 4.2-.5 1.6-.8 3.2-.9 4.8-.1 1.6 0 3.2.3 4.6 0 .2.1.3.1.5l.2.5c.1.3.3.7.4 1 .3.7.6 1.3 1 1.9.7 1.2 1.5 2.4 2.3 3.4.4.5.9.9 1.4 1.1.4.2.8 0 1.3-.4s.9-1 1.3-1.7c.4-.6.8-1.3 1.2-2 .8-1.4 1.7-2.8 2.5-4.1.8-1.4 1.6-2.8 2.3-4.2.4-.7.7-1.5.9-2.2.3-.8.5-1.6.6-2.3.1-1.6-.1-3.2-.4-4.7-.3-1.5-.7-3-1.1-4.5-.2-.7-.5-1.4-.8-2-.1-.1-.1-.3-.2-.4-.1-.1-.1-.2-.3-.3-.2-.2-.4-.5-.6-.6-.7-.6-2 .4-3.1 1.2-2.2 1.5-4.3 3.7-6.2 6.2z" fill="#e1ac8f" stroke-width="none" opacity="1" stroke="none"></path><path id="SvgjsPath11992" d="M148.8 99.4c.3-2.3.5-7.8-.8-9.6-2.2-2.9-6 6.4-6.9 9.3 0 .1-.1.2-.1.3-.2.3.1.7.4.6.4-.2.9-.6 1.3-.8 1.1-.5 1.6.5 1.3 1.8-.4 1.8-1.4 2.9-2.2 4.3-.1.2 0 .4.2.3 1.6-.9 3.5-4.5 3.1-6.6-.3-2-1.9-1.8-3.1-.8.7-1.7 1.5-3.3 2.5-4.8.6-.9 1.2-2 2.2-2.2 1.2-.2 1 .3 1.2 1.8.8 4.8.3 10.4-2.5 14.5-.1.1 0 .2.1.1 1.8-2.3 3-4.9 3.3-8.2z" fill="#d19271" stroke-width="none" opacity="1" stroke="none"></path></g></g><g id="svga-group-faceshape-wrap"><g id="svga-group-faceshape-single"><path id="SvgjsPath10712" d="M143.2 82.7v-.3C141.9 52 122.5 35.3 100 35.3S58.1 51.9 56.8 82.4v.3c-.1 2-.3 17.2 1.6 30.7 1.4 9.8 2.7 19.6 12.2 25.4s13.6 7.2 16.1 10.4c2.5 3.1 10.2 4.5 13.2 4.5s10.7-1.2 13.2-4.5c2.5-3.1 6.6-4.7 16.1-10.4 9.6-5.8 10.8-15.5 12.2-25.4 2.1-13.5 1.8-28.7 1.8-30.7z" fill="#f0c7b1" stroke-width="none" opacity="1" stroke="none"></path><path id="SvgjsPath10713" d="M141.4 113.4c2.1-13.5 1.8-28.7 1.8-30.7v-.3C141.9 52 122.5 35.3 100 35.3S58.1 51.9 56.8 82.4v.3c-.1 2-.3 17.2 1.6 30.7 1.4 9.8 2.7 19.6 12.2 25.4s13.6 7.2 16.1 10.4c2.5 3.1 10.2 4.5 13.2 4.5s10.7-1.2 13.2-4.5c2.5-3.1 6.6-4.7 16.1-10.4 9.6-5.8 10.8-15.5 12.2-25.4zm-15.2 24.4-9 5c-1.5.9-3.1 1.8-4.7 3.2-.4.3-.8.7-1.1 1.1l-.3.3-.2.2-.2.2c-.4.3-.9.7-1.5 1-2.5 1.2-5.8 1.9-8.8 2.1-1.3.1-2.9-.1-4.5-.4-1.5-.3-3.1-.7-4.4-1.2-.7-.3-1.3-.6-1.9-.9-.3-.2-.5-.3-.7-.5s-.2-.2-.6-.7c-1.4-1.6-3.1-2.7-4.6-3.8-3.1-1.8-6.1-3.4-9-5.1-1.5-.8-3-1.7-4.2-2.5-1.3-.9-2.4-1.8-3.4-3-.5-.5-1-1.2-1.4-1.8-.4-.7-.9-1.3-1.2-2-.7-1.4-1.4-2.8-1.9-4.5-1-3.2-1.6-6.4-2.3-9.8-.6-3.3-1.1-6.8-1.5-10.2-.4-3.4-.7-6.8-.9-10.2s-.3-6.9-.3-10.3c0-1.7.1-3.4.3-5.2.1-.8.1-1.7.2-2.5l.4-2.5c.2-.8.2-1.7.4-2.5l.6-2.4c.2-.8.4-1.6.7-2.4l.9-2.4c1.2-3.2 2.8-6.2 4.6-9 .4-.7 1-1.3 1.5-2 .5-.6 1-1.3 1.6-1.9l1.7-1.8.9-.9 1-.8c5-4.4 11-7.4 17.3-8.8 6.3-1.4 13-1.6 19.3-.2l2.4.5c.8.2 1.5.5 2.3.7 1.6.4 3 1.1 4.5 1.7.8.3 1.4.7 2.2 1.1.7.4 1.5.7 2.1 1.2l2 1.4c.3.2.7.4 1 .7l.9.8c5.1 4.2 9.4 9.6 12.1 15.8 2.7 6.3 4.1 13.1 4.4 20 0 3.4 0 6.9-.2 10.3s-.4 6.9-.9 10.3c-.4 3.4-.9 6.8-1.6 10.2-.7 3.4-1.3 6.8-2.3 9.9-1 3.2-2.4 6.1-4.3 8.5-3.1 3.6-6.7 5.5-7.4 6z" fill="#c27b55" stroke-width="none" opacity="1" stroke="none"></path></g></g><g id="svga-group-mouth-single-move" transform="matrix(1,0,0,1,0,0)"><g id="svga-group-mouth-single"><path id="SvgjsPath11803" d="M85.34 126.92s2.37-.51 5.3-1.54c2.87-1.01 6.09-2.05 8.83-2.14 3.98-.13 6.69.33 9.92 1.61 4.77 1.89 7.89 2.17 7.89 2.17s-2.81 2.71-10.17 4.41c-7.36 1.7-14.09.36-17.26-1.47-3.17-1.83-4.51-3.04-4.51-3.04z" fill="#da7c87" stroke-width="none" opacity="1" transform="translate(0 2)" stroke="none"></path><path id="SvgjsPath11804" d="M118.94 126.28c-.72.2-2.15 1.09-8.57.73-2.91-.16-5.81-.6-8.73-.65-2.85-.05-5.66.33-8.49.57-6.77.58-8.72-.58-9.3-.72-.16-.04-.27.19-.11.27 5.39 2.95 12.12.73 17.9.89 5.62.16 12.32 2.08 17.53-.92.27-.16.09-.26-.23-.17z" fill="#cb5f6c" stroke-width="none" opacity="1" transform="translate(0 2)" stroke="none"></path></g></g><g id="svga-group-eyes-left-move" transform="matrix(1,0,0,1,0,0)"><g id="svga-group-eyes-left"><g id="svga-group-eyesback-left"><path id="SvgjsPath10668" d="M90.4 96.5S89 94 86.9 92.3c-2.1-1.7-5.6-2.5-8.1-2.3-2.5.2-7.1 1.8-9.6 5.5 0 0 2.3 1.2 5.6 1.8 3.3.6 8.9 1.1 12 .4 3-.6 3.6-1.2 3.6-1.2z" fill="#ffffff" stroke-width="none" opacity="1"></path></g><g id="svga-group-eyesiriswrapper-left" transform="matrix(1,0,0,1,0,0)"><g id="svga-group-eyesiriscontrol-left" transform="matrix(1,0,0,1,0,0)"><g id="svga-group-eyesiris-left"><path id="SvgjsPath14858" d="M80 88.1c3 0 5.5 2.4 5.5 5.4 0 3-2.4 5.5-5.4 5.5s-5.5-2.4-5.5-5.4c0-3 2.4-5.5 5.4-5.5z" fill="#384b94" stroke-width="none" opacity="1"></path><path id="SvgjsPath14859" d="M80.1 99.3c-3.2 0-5.8-2.5-5.8-5.7s2.5-5.8 5.7-5.8 5.8 2.5 5.8 5.7-2.5 5.7-5.7 5.8zm-.1-11c-2.9 0-5.2 2.4-5.1 5.2s2.4 5.2 5.2 5.1c2.9 0 5.2-2.4 5.1-5.2 0-2.8-2.3-5.1-5.2-5.1z" fill="#253984" stroke-width="none" opacity="1"></path><path id="SvgjsPath14860" d="M80 88.9c2.6 0 4.7 2.1 4.7 4.6 0 2.6-2.1 4.7-4.6 4.7s-4.7-2.1-4.7-4.6c0-2.6 2-4.7 4.6-4.7z" fill="#43559b" stroke-width="none" opacity="1"></path><path id="SvgjsPath14861" d="M80 89.5c2.2 0 4 1.8 4.1 4 0 2.2-1.8 4-4 4.1s-4-1.8-4.1-4c0-2.3 1.8-4.1 4-4.1z" fill="#4e60a3" stroke-width="none" opacity="1"></path><path id="SvgjsPath14862" d="M80 90.6c1.6 0 2.9 1.3 3 2.9 0 1.6-1.3 2.9-2.9 3s-2.9-1.3-3-2.9c0-1.7 1.3-3 2.9-3z" fill="#000000" stroke-width="none" opacity="1"></path><path id="SvgjsPath14863" d="M78.7 90.6c.6 0 1 .4 1 1s-.4 1-1 1-1-.4-1-1 .5-1 1-1zm3.4 4.6c.2 0 .4.2.4.4s-.1.4-.4.4-.4-.2-.4-.4.2-.4.4-.4z" fill="#ffffff" stroke-width="none" opacity="1"></path></g></g></g><g id="svga-group-eyesfront-left"><path id="SvgjsPath10676" d="M74.8 97.4c3.3.6 8.9 1.1 12 .4s3.6-1.3 3.6-1.3-1.4-2.5-3.5-4.2-5.6-2.5-8.1-2.3c-2.5.2-6.8 1.7-9.3 5.2v-.7c0-6.4 4.7-11.5 10.6-11.5s10.6 5.2 10.6 11.5S86 106 80.1 106c-5.5 0-10.1-4.6-10.6-10.5.6.5 2.6 1.4 5.3 1.9z" fill="#f0c7b1" stroke-width="none" opacity="1" stroke="none"></path><path id="SvgjsPath10677" d="M90.9 98c-3.6 2.6-8.4 4.1-12.9 3.7-.2 0-.2-.2 0-.2 4.7-.5 8.5-1.4 12.7-3.7.3-.2.4.1.2.2z" fill="#e1ac8f" stroke-width="none" opacity="1" stroke="none"></path><path id="SvgjsPath10678" d="M69.2 95.7c5.5 4.1 15.4 3.7 21.5 1.5.3-.1.5-.5.3-.8-4.8-9.2-16.2-9.3-22-1-.1.1.1.3.2.3zm10.9 1.9c-3.7-.2-7-1.3-10.5-2.2 5.7-6.8 15.6-6.8 20.2.9-3.2 1.1-6.4 1.5-9.7 1.3z" fill="#000000" stroke-width="none" opacity="1" stroke="none"></path></g></g></g><g id="svga-group-eyes-right-move" transform="matrix(1,0,0,1,0,0)"><g id="svga-group-eyes-right"><g id="svga-group-eyesback-right"><path id="SvgjsPath10669" d="M109.6 96.5s1.4-2.5 3.5-4.2c2.1-1.7 5.6-2.5 8.1-2.3 2.5.2 7.1 1.8 9.6 5.5 0 0-2.3 1.2-5.6 1.8-3.3.6-8.9 1.1-12 .4-3-.6-3.6-1.2-3.6-1.2z" fill="#ffffff" stroke-width="none" opacity="1"></path></g><g id="svga-group-eyesiriswrapper-right" transform="matrix(1,0,0,1,0,0)"><g id="svga-group-eyesiriscontrol-right" transform="matrix(1,0,0,1,0,0)"><g id="svga-group-eyesiris-right"><path id="SvgjsPath14864" d="M119.9 88.1c3 0 5.5 2.4 5.5 5.4S123 99 120 99s-5.5-2.4-5.5-5.4 2.4-5.5 5.4-5.5z" fill="#384b94" stroke-width="none" opacity="1"></path><path id="SvgjsPath14865" d="M120 99.3c-3.2 0-5.8-2.5-5.8-5.7s2.5-5.8 5.7-5.8 5.8 2.5 5.8 5.7-2.5 5.7-5.7 5.8zm-.1-11c-2.9 0-5.2 2.4-5.1 5.2 0 2.9 2.4 5.2 5.2 5.1 2.9 0 5.2-2.4 5.1-5.2 0-2.8-2.3-5.1-5.2-5.1z" fill="#253984" stroke-width="none" opacity="1"></path><path id="SvgjsPath14866" d="M119.9 88.9c2.6 0 4.7 2.1 4.7 4.6s-2.1 4.7-4.6 4.7-4.7-2.1-4.7-4.6 2-4.7 4.6-4.7z" fill="#43559b" stroke-width="none" opacity="1"></path><path id="SvgjsPath14867" d="M119.9 89.5c2.2 0 4 1.8 4.1 4 0 2.2-1.8 4-4 4.1-2.2 0-4-1.8-4.1-4 0-2.3 1.8-4.1 4-4.1z" fill="#4e60a3" stroke-width="none" opacity="1"></path><path id="SvgjsPath14868" d="M119.9 90.6c1.6 0 2.9 1.3 3 2.9 0 1.6-1.3 2.9-2.9 3-1.6 0-2.9-1.3-3-2.9 0-1.7 1.3-3 2.9-3z" fill="#000000" stroke-width="none" opacity="1"></path><path id="SvgjsPath14869" d="M118.6 90.6c.6 0 1 .4 1 1s-.4 1-1 1-1-.4-1-1 .5-1 1-1zm3.4 4.6c.2 0 .4.2.4.4s-.1.4-.4.4-.4-.2-.4-.4.2-.4.4-.4z" fill="#ffffff" stroke-width="none" opacity="1"></path></g></g></g><g id="svga-group-eyesfront-right"><path id="SvgjsPath10679" d="M125.2 97.4c-3.3.6-8.9 1.1-12 .4s-3.6-1.3-3.6-1.3 1.4-2.5 3.5-4.2 5.6-2.5 8.1-2.3c2.5.2 6.8 1.7 9.3 5.2v-.7c0-6.4-4.7-11.5-10.6-11.5s-10.6 5.2-10.6 11.5S114 106 119.9 106c5.5 0 10.1-4.6 10.6-10.5-.6.5-2.6 1.4-5.3 1.9z" fill="#f0c7b1" stroke-width="none" opacity="1" stroke="none"></path><path id="SvgjsPath10682" d="M109.1 98c3.6 2.6 8.4 4.1 12.9 3.7.2 0 .2-.2 0-.2-4.7-.5-8.5-1.4-12.7-3.7-.3-.2-.4.1-.2.2z" fill="#e1ac8f" stroke-width="none" opacity="1" stroke="none"></path><path id="SvgjsPath10683" d="M131 95.4c-5.8-8.3-17.3-8.2-22 1-.2.3 0 .7.3.8 6.1 2.2 16 2.6 21.5-1.5.1 0 .3-.2.2-.3zm-20.8.9c4.6-7.7 14.5-7.7 20.2-.9-3.5.9-6.8 2-10.5 2.2-3.3.2-6.5-.2-9.7-1.3z" fill="#000000" stroke-width="none" opacity="1" stroke="none"></path></g></g></g><g id="svga-group-facehighlight-single"></g><g id="svga-group-eyebrows-left-move" transform="matrix(1,0,0,1,0,0)"><g id="svga-group-eyebrows-left-rotate" transform="matrix(1,1.7453292519943295e-9,-1.7453292519943295e-9,1,1.4176201545978984e-7,-1.3606350535155798e-7)"><g id="svga-group-eyebrows-left"><path id="SvgjsPath12542" d="M67 82.5c.1-.3.3-.6.5-.8.1-.2.3-.5.5-.7.2-.2.4-.4.7-.6.5-.9 1.7-1.6 2.5-2.1.9-.5 1.8-.9 2.9-.9 1-.2 2.1-.2 2.9.2.4 0 .7.1 1 .3 1.1-.1 2.3.2 3.3.4 1.4.3 2.8.6 4.1 1.2 1.4 0 2.8.1 4.1.5h.2c.1 0 .2.1.2.1h.1c.1 0 .2.1.3.2.1.1 0 .3 0 .4v.1c0 .2 0 .4-.1.6 0 .6-.1 1.1-.5 1.6 0 .1 0 .2-.1.3-.1.5-.2 1.1-.7 1.4-.2.2-.5.3-.8.3-.1 0-.2 0-.3-.1h-.6c-.6.2-1.4 0-1.9-.1-.6-.1-1.2-.3-1.7-.6-1.8-.3-3.5-.8-5.3-1.2-1.6-.4-4-.4-5.4-1.3-.7.1-1.3.2-2 .2-.3 0-.7.1-1.1 0-.2 0-.5 0-.7-.2 0 0-.1 0-.1-.1h-.1l-.4.4c-.3.3-.7.7-1.2.8-.1.2-.3 0-.3-.3z" fill="#2a232b" stroke-width="none" opacity="1"></path><path id="SvgjsPath12543" d="M87.7 83c-.1-.6-.2-1.2-.4-1.7 0-.2.2-.3.3-.1.7 1 .9 2.8.2 3.9-.1.2-.3.1-.3-.1.1-.8.2-1.4.2-2zm-3.4-3.2c1.3.8 2.1 2.6 2.1 4 0 .2-.3.3-.3.1-.2-.7-.4-1.3-.7-1.9-.3-.7-.9-1.2-1.3-1.9-.3-.2 0-.4.2-.3zm-3.3-.7c2.2.8 3.8 3.2 4.2 5.3 0 .2-.2.2-.3.1-.4-1-.9-2-1.7-2.8-.7-.9-1.6-1.4-2.5-2.2-.2-.1.1-.5.3-.4zm-4.9-.8c2.4.6 4.8 2.6 5.8 4.7.1.2-.3.4-.4.2-.8-1-1.6-1.9-2.6-2.7-.9-.7-2-1.2-3-1.8-.2-.1-.1-.4.2-.4zM67.4 82c1.6-1.8 3.8-4.3 6.5-4 .2 0 .2.3 0 .3-2.6.2-4.3 2.5-6.3 3.9-.2.1-.4-.1-.2-.2z" fill="#3a353a" stroke-width="none" opacity="1"></path><path id="SvgjsPath12544" d="M90.9 80.6c-.1-.3-.5-.3-.6 0-.3 1.1-.3 2.4-1.2 3.3-.6.7-1.5.8-2.4.7.3-1.5.2-3.7-.8-4.9-.2-.2-.5-.1-.4.2 0 .8.4 1.6.5 2.4.1.8.2 1.5.2 2.3-.1 0-.2 0-.3-.1-.3-2-1.3-4.1-2.8-5.5 2.3.5 4.6.9 6.9 1.1.1 0 .2-.2.1-.2-2.6-.9-5.3-1.4-8-2-2.4-.5-5.1-1.4-7.6-1.5-2.1-.1-3.6.9-5 2.2-1.5 1.4-3.1 3.1-4.1 4.9l-.2.2c-.1.1-.2.3-.1.4 0 0 0 .1-.1.1-.2.4.3.7.6.4.1 0 .2 0 .3-.1 1.4-.7 2.5-1.4 4.1-1.6 1.3-.2 2.7-.1 4 .1 2.9.4 5.6 1.3 8.3 2.1 2.1.6 4.9 1.7 6.9.2 1.7-1 1.9-3.1 1.7-4.7zm-13.4 1.3c-.5-.1-1.1-.2-1.7-.3.1-1.1-.3-2.3-.8-3.3.7.6 1.4 1.2 2 1.9.6.6.9 1.4 1.5 2-.4-.1-.7-.2-1-.3zM70 79.5c1.2-1.1 2.5-1.7 4-1.9.2.8.6 1.6.7 2.4l.3 1.5c-.3 0-.7-.1-1-.1-.5-.9-1.3-1.8-2.3-2.1-.2-.1-.3.2-.2.4.4.4.9.8 1.3 1.2.1.2.2.3.4.5-1.9-.1-3.8.1-5.4.8.6-1 1.3-1.9 2.2-2.7zm15.2 4.8c-.2-.1-.4-.1-.6-.2-.4-.1-.9-.3-1.3-.4-.8-1.8-2.1-3.6-3.7-4.8-.2-.1-.4.1-.3.2 1.2 1.4 2.2 2.9 3.3 4.4-1.1-.4-2.2-.7-3.2-1.1-.2-1.1-1.2-2.2-1.9-3-.7-.7-1.5-1.4-2.4-1.9.4 0 .8.1 1.3.1 2 .3 4 .8 6 1.2v.1c.7 1.1 1.5 2.2 2.1 3.3.2.7.4 1.4.7 2.1z" fill="#1b141c" stroke-width="none" opacity="1"></path></g></g></g><g id="svga-group-eyebrows-right-move" transform="matrix(1,0,0,1,0,0)"><g id="svga-group-eyebrows-right-rotate" transform="matrix(1,1.7453292519943295e-9,-1.7453292519943295e-9,1,1.4176202967064455e-7,-2.127084570702209e-7)"><g id="svga-group-eyebrows-right"><path id="SvgjsPath12545" d="M133 82.5c-.1-.3-.3-.6-.5-.8-.1-.2-.3-.5-.5-.7-.2-.2-.4-.4-.7-.6-.5-.9-1.7-1.6-2.5-2.1-.9-.5-1.8-.9-2.9-.9-1-.2-2.1-.2-2.9.2-.4 0-.7.1-1 .3-1.1-.1-2.3.2-3.3.4-1.4.3-2.8.6-4.1 1.2-1.4 0-2.8.1-4.1.5h-.2c-.1 0-.2.1-.2.1h-.1c-.1 0-.2.1-.3.2-.1.1 0 .3 0 .4v.1c0 .2 0 .4.1.6 0 .6.1 1.1.5 1.6 0 .1 0 .2.1.3.1.5.2 1.1.7 1.4.2.2.5.3.8.3.1 0 .2 0 .3-.1h.6c.6.2 1.4 0 1.9-.1.6-.1 1.2-.3 1.7-.6 1.8-.3 3.5-.8 5.3-1.2 1.6-.4 4-.4 5.4-1.3.7.1 1.4.2 2 .2.3 0 .7.1 1.1 0 .2 0 .5 0 .7-.2 0 0 .1 0 .1-.1h.1l.4.4c.3.3.7.7 1.2.8.1.2.3 0 .3-.3z" fill="#2a232b" stroke-width="none" opacity="1"></path><path id="SvgjsPath12546" d="M112.3 83c.1-.6.2-1.2.4-1.7 0-.2-.2-.3-.3-.1-.7 1-.9 2.8-.2 3.9.1.2.3.1.3-.1-.1-.8-.2-1.4-.2-2zm3.4-3.2c-1.3.8-2.1 2.6-2.1 4 0 .2.3.3.3.1.2-.7.4-1.3.7-1.9.3-.7.9-1.2 1.3-1.9.3-.2 0-.4-.2-.3zm3.3-.7c-2.2.8-3.8 3.2-4.2 5.3 0 .2.2.2.3.1.4-1 .9-2 1.7-2.8.7-.9 1.6-1.4 2.5-2.2.2-.1-.1-.5-.3-.4zm4.9-.8c-2.4.6-4.8 2.6-5.8 4.7-.1.2.3.4.4.2.8-1 1.6-1.9 2.6-2.7.9-.7 2-1.2 3-1.8.2-.1.1-.4-.2-.4zm8.7 3.7c-1.6-1.8-3.8-4.3-6.5-4-.2 0-.2.3 0 .3 2.6.2 4.3 2.5 6.3 3.9.2.1.4-.1.2-.2z" fill="#3a353a" stroke-width="none" opacity="1"></path><path id="SvgjsPath12547" d="M110.6 85.3c2 1.5 4.8.4 6.9-.2 2.8-.8 5.5-1.8 8.3-2.1 1.3-.2 2.7-.3 4-.1 1.6.2 2.7.9 4.1 1.6.1.1.2.1.3.1.3.3.8 0 .6-.4 0 0 0-.1-.1-.1 0-.1 0-.3-.1-.4l-.2-.2c-1-1.8-2.6-3.5-4.1-4.9-1.4-1.3-2.9-2.3-5-2.2-2.5.1-5.2 1-7.6 1.5-2.7.6-5.4 1.1-8 2-.2.1-.1.2.1.2 2.3-.2 4.6-.6 6.9-1.1-1.5 1.4-2.5 3.5-2.8 5.5-.1 0-.2 0-.3.1.1-.8.1-1.5.2-2.3.1-.8.5-1.6.5-2.4 0-.2-.3-.3-.4-.2-1 1.2-1.1 3.4-.8 4.9-.9.1-1.7 0-2.4-.7-.8-.9-.9-2.2-1.2-3.4-.1-.3-.5-.3-.6 0 0 1.7.2 3.8 1.7 4.8zm10.9-3.2c.5-.6.9-1.4 1.5-2 .6-.7 1.3-1.3 2-1.9-.5 1-.9 2.3-.8 3.3-.6.1-1.2.2-1.7.3-.3.2-.6.3-1 .3zm10.8 0c-1.6-.7-3.6-.9-5.4-.8.1-.2.2-.3.4-.5.4-.5.9-.8 1.3-1.2.1-.1.1-.4-.2-.4-1 .3-1.8 1.2-2.3 2.1-.3 0-.7.1-1 .1l.3-1.5c.2-.8.5-1.6.7-2.4 1.4.2 2.7.8 4 1.9.8.9 1.5 1.8 2.2 2.7zm-16.7.2c.6-1.2 1.4-2.2 2.1-3.3v-.1c2-.4 4-.9 6-1.2.4-.1.9-.1 1.3-.1-.9.5-1.7 1.2-2.4 1.9-.7.8-1.7 1.9-1.9 3-1.1.3-2.2.7-3.2 1.1 1-1.5 2.1-2.9 3.3-4.4.1-.2-.1-.3-.3-.2-1.6 1.2-2.9 3-3.7 4.8-.4.1-.9.3-1.3.4-.2.1-.4.1-.6.2.2-.8.4-1.5.7-2.1z" fill="#1b141c" stroke-width="none" opacity="1"></path></g></g></g><g id="svga-group-beardwrap"><g id="svga-group-beard-single-move" transform="matrix(1,0,0,1,0,0)"><g id="svga-group-beard-single"><path id="SvgjsPath10584" d="M143.3 88.3c-.4-1.3-2.9-2.1-3.2.2-1.5 10.8-5.7 31.9-11.1 35.3-1.3.6-2.2 1.4-3.8 1.6 1-.4 1.8-1 2.6-1.6 1.9-1.3 6.4-5.2 2.2-9.9-3.2-3.6-6.2 1.5-6.2 1.5s1-.9 2.9-.6c3 .4 1.6 4.5-2.7 5.2s-4.6-3-11.2-2.7c-6.7.4-12.4 2.3-12.4 2.3s-5.3-1.9-12-2.3c-6.7-.4-6.8 3.4-11.2 2.7-4.4-.8-5.8-4.8-2.7-5.2 1.9-.3 2.9.6 2.9.6s-3-5.1-6.2-1.5c-4.2 4.7.3 8.6 2.2 9.9.5.3.9.7 1.4 1-1.7 0-4.6-1.6-5.9-3.5-1.9-2.8-6.1-14-7.2-19.5-.7-3.5-1.5-13.1-1.7-14.1s-2.8-.6-3.4.6-2.4 21.3-2.4 21.3c-.3 7.3-.9 16.5 2.1 22.1 1.8 3.9 10.5 15.7 10.5 15.7l-.6-2.1c4.8 4.6 15.2 12.2 15.2 12.2l-.2-1.3C84.7 159 98 167.5 98 167.5l.2-1.3 2.1 1.5s4.9-.6 7.8-2.7 10.5-8.2 10.5-8.2l.2 1.5c4.6-4 11.2-10.8 11.2-10.8l-.6 2.9s13-13.9 14.6-18.5c1.3-3.7 2.3-8.9 2-17.7-.7-12.7-2.4-24.5-2.7-25.9zm-25.1 44.6c-1.1 1.3-11 11-11.4 10.5-.4-.6-1.1-5.3-1.1-5.3-1.7.6-12.9-.2-12.9-.2 0 1.1-1.1 5.5-1.1 5.5l-10.7-11s0-4.3-.3-6.2c.3 0 .5 0 .8-.1 4.8-.4 15.1-.7 19-1.9 3.7 1.1 13.4 1.5 18.4 1.8 0 1.5.2 5.8-.7 6.9z" fill="#2a232b" stroke-width="none" opacity="1"></path><path id="SvgjsPath10585" d="M56.1 98.9c.3-2.6.5-5.3.8-7.9 0-.2-.1-.2-.2-.2l.3-2.7c0-.2-.3-.2-.3 0-.2 1.7-.4 3.3-.5 4.9v.1c-.3 1.9-.5 3.8-.4 5.8-.1.2.3.2.3 0zm-.5 8c.2-2.9.2-5.8.3-8.7 0-.2-.3-.2-.3 0-.1 2.9-.3 5.8-.3 8.7 0 .2.3.2.3 0zm-1.9 3.8c-.3 4.7-.2 9.7.6 14.3 0 .1.2.1.2 0-.1-4.8-.4-9.6-.5-14.3-.1-.2-.3-.1-.3 0zm1.6-4.3c-.2.8-.3 1.7-.5 2.5.1-2.7.2-5.4.4-8.2 0-.2-.3-.2-.3-.1-.8 4.3-1.1 8.7-.7 13-.2 2.6-.1 5.1.3 7.6 0 .2.4.2.4-.1-.1-5-.1-9.9.6-14.9.2.1-.1.1-.2.2zm3.9 29.1v-.1c0-.1-.1-.1-.1-.2-.9-2.1-1.6-4.2-2.2-6.4.1.2.4.1.3-.1-1-4.8-1.7-9.4-1.6-14.3 0-.2-.2-.2-.3 0-.3 4-.1 8.1.9 12-.1 0-.3 0-.3.2.2 1.9.6 3.9 1.2 5.7-.8-1.5-1.5-3-2-4.8 0-.2-.3-.1-.3 0-.1-.9-.2-1.8-.3-2.6 0-.2-.2-.2-.3 0-.1 2.1.2 4.7 1.1 6.6 0 .1.2 0 .2-.1-.2-1-.5-2-.6-3 0-.2 0-.3-.1-.5.4 2.4 1.5 5 3.1 6.8.4 1 .9 1.9 1.5 2.9.1.2.5 0 .4-.2-.1-.6-.4-1.3-.6-1.9zm.4-6c0-.2-.3-.2-.3 0-.3 4.4.6 9.1 3.3 12.7.2.3.6 0 .5-.3-2.2-3.9-3.5-7.8-3.5-12.4zm2.8 6.8c-.1-.3-.5-.2-.5.1.6 4.1 2.2 8.1 5.2 11 .2.2.5-.1.3-.3-2.2-3.3-4.1-6.7-5-10.8zm2.4 3.8c-.1-.3-.6 0-.4.2 2.1 4.4 5.1 8.5 9 11.5.2.1.4-.1.2-.3-3.5-3.4-6.5-7-8.8-11.4zm5.8 5.3c-.2-.2-.5 0-.4.2 2.7 4 5.7 7.9 9.7 10.8.2.1.4-.2.2-.3-3.2-3.5-6.6-6.8-9.5-10.7zm17.5 14c-.1-.1-.1-.1-.2 0-.7-1.1-1.8-2.1-2.8-3-.2-.2-.6.1-.3.3 1.1 1.1 1.9 2.4 3 3.4.1.1.3.1.3-.1 1.1.9 2.2 1.9 3.3 2.8-3.1-2.2-6.3-4.3-9.4-6.5l.9.6c.2.1.5-.2.3-.4-2.4-2.2-4.9-4.1-7.1-6.6-.1-.2-.4.1-.3.2 1.4 1.8 3 3.7 4.9 5.2-.1-.1-.2-.1-.2-.2-.2-.1-.4.1-.2.2 3.7 3.1 7.6 6.1 11.9 8.4.2.1.3 0 .3-.2 1.9 1.5 3.8 2.9 5.8 4 .2.1.5-.2.3-.4-3.3-2.6-7.1-5-10.5-7.7zm9.2 5.5-1.6-1.8c.2.1.3.2.5.3.2.1.4-.1.2-.3-.6-.7-1.4-1.4-2.1-2.1-.4-.4-.8-.8-1.1-1.3l.8.8c.5.5 1 1.1 1.6 1.6.2.1.4 0 .3-.2-.9-1.2-2.1-2.2-3.1-3.2-.1-.1-.3 0-.3.1 0-.1-.1-.1-.1-.1-.1-.2-.4 0-.4.1-1-1.2-2.1-2.3-3.2-3.4-.2-.2-.4.1-.2.2 1.6 1.9 3.1 3.9 4.9 5.6.1.1.2 0 .3-.1.4.5.9 1 1.4 1.5-.2 0-.4.3-.2.6l2 2.2c.6.7 1.2 1.4 1.9 2 .2.2.5-.2.4-.4-.7-.8-1.4-1.4-2-2.1zm1.5-.2c-.2-.2-.6.1-.4.4.3.4.6.7 1 1 .2.1.3-.1.2-.2-.1-.4-.5-.8-.8-1.2zm-40.2-65c.2-2.3.2-4.6.2-6.9 0-.2-.3-.2-.3 0-.2 2.3-.3 4.6-.2 6.9 0 .2.3.2.3 0zm.9 8.6c.3-2.9.4-5.8.2-8.7 0-.2-.3-.2-.4 0-.3 2.9-.3 5.8-.2 8.7.1.2.4.2.4 0zm.3 6.5c.6-2.9.9-6.1 1.2-9.1 0-.2-.2-.2-.3 0-.6 3-1.1 6-1.3 9-.1.3.3.3.4.1zm1.3 4.9c.3-2.6.3-5.2.5-7.8 0-.2-.3-.2-.3 0-.2 2.6-.5 5.2-.5 7.8 0 .2.3.2.3 0zm.3 3.4c-.1 2.8-.1 5.7.3 8.4 0 .2.3.1.3 0-.1-2.8-.3-5.6-.2-8.4 0-.2-.4-.2-.4 0zm2.5 14.4c-.6-3.5-1-6.8-.7-10.3 0-.3-.4-.3-.5 0-.4 3.5-.4 7.1.7 10.4.1.3.6.2.5-.1zm2.9 4.4c-.8-2.7-1.6-5.4-2-8.1 0-.2-.4-.2-.4.1.3 2.8.9 5.6 2.1 8.2.1.1.4 0 .3-.2zm2.6 2.2c.1.2.4.1.4-.2-.7-2.1-1.7-4-2.3-6.1-.1-.3-.6-.2-.5.1.5 2.2 1.2 4.4 2.4 6.2zm3.3 1.4c.3.9.7 1.6 1.2 2.3.1.2.4.1.4-.1-.5-2-1.6-3.9-2.2-5.9-.1-.3-.5-.2-.4.1.2.8.4 1.6.6 2.5-.6-1.2-1.3-2.4-1.7-3.8-.1-.3-.6-.2-.5.1.5 1.6 1.2 3.4 2.3 4.8.1.1.2.1.3 0zm14.1 10.9c.2.1.4-.1.2-.2-1.5-1.7-3.2-3.4-4.7-5.1-.2-.3-.5-.7-.7-1-.2-.3-.6 0-.4.2.9 1.7 1.9 3.6 3.5 4.9.2.1.5 0 .3-.3-.1-.2-.2-.4-.4-.5.8.8 1.5 1.4 2.2 2zm2.2 1.2s.1 0 0 0c.9 1 1.8 2 2.8 2.8.1.1.3-.1.2-.2-1.6-1.7-3.2-3.3-4.5-5.1-.1-.1-.2-.1-.2 0-.1-.1-.2-.3-.3-.4-.2-.2-.4.1-.3.3.7.8 1.4 1.8 2.3 2.6zm8.8 5c-.2-.2-.5 0-.5.2l-.1-.1c-.5-.6-1.1-1.1-1.6-1.7-.1-.1-.4.1-.3.2.4.6.8 1.2 1.3 1.7.4.5.7 1.2 1.3 1.4.1 0 .2-.1.2-.1 0-.1-.1-.2-.1-.3l.7.7c.4.5.8 1.1 1.3 1.6.2.2.4 0 .3-.3-.4-1.3-1.5-2.4-2.5-3.3zm44.5-75.1c-.1-.2-.4 0-.4.1 1.1 2.3 1.8 4.6 2.3 7-.1-.1-.4 0-.3.1.4 4.8.6 9.7.9 14.6-.5-2.1-1-4.2-1.7-6.3-.1-.2-.5-.1-.4.1 1.9 6.5 3 13 3 19.8 0 .2.5.2.5-.1.1-4-.3-8-1.1-11.9.1 0 .1-.1.1-.1.4-4.4.1-8.8-.5-13.1.1 0 .2 0 .2-.1.1-3.5-.8-6.9-2.6-10.1zm1.1 43c-1.1 2.8-2.6 5.2-4.3 7.7-.2.2.2.5.4.3 2.2-2.1 3.6-5 4.3-7.9.1-.3-.3-.3-.4-.1zm.9-18c0-.2-.4-.2-.4 0 .5 5.3.5 10.6.8 15.9-.1.8-.2 1.6-.5 2.5-.4 1.4-1.1 2.6-1.9 3.9-.1.1-.1.2-.1.3-.1.2.1.4.3.2 1.1-1.4 2.1-3.3 2.6-5.2.1 0 .2-.1.2-.2.5-5.8-.2-11.8-1-17.4zm-11 31.3c-.9 2.2-2.3 4.1-3.8 5.9-.1.1.1.3.2.2 1.9-1.6 3.1-3.6 4-5.9.1-.3-.3-.5-.4-.2zm-3 1.7c-2.1 2.8-4.3 5.4-6.7 7.9.2-.4.4-.9.6-1.4.1-.2-.3-.4-.4-.1-.6 1.2-1.3 2.4-2.1 3.4-.4.4-.9.9-1.3 1.4-.1.1-.1.2 0 .3-.8.9-1.8 1.7-2.7 2.5-.1.1 0 .3.2.2 1.5-.8 2.8-2 3.9-3.3 3.7-2.8 7-6.6 9.1-10.6.1-.3-.4-.6-.6-.3zm-10.5 9c-2.1 2.8-4.5 5.3-6.8 7.9-.2.2.1.6.3.4 2.8-2.1 5.2-5.1 7-8 .2-.4-.3-.6-.5-.3zm-4.8 5.1c.3-.3-.2-.7-.4-.4-1.9 1.9-4 3.5-6.1 5.1.4-.5.9-1 1.3-1.5.1-.2-.1-.4-.2-.2-1.9 1.8-4 3.2-6 4.8-.2.2.1.4.3.3 1.2-.5 2.2-1.2 3.2-2 .1.1.2.1.3.1 2.8-1.4 5.4-3.8 7.6-6.2zm-10.4 5.7c-1.3.7-2.9 1.6-3.8 2.9-.1.2.1.4.3.3 1.3-.8 2.3-2 3.7-2.8.2-.1 0-.5-.2-.4zm-3.2 1.3c.1-.2-.2-.3-.3-.2-.2.3-.4.5-.4.8 0 .1.1.2.2.1.2-.1.3-.4.5-.7zm-24.9-17.2c-1.1-1.7-2.2-3.3-2.7-5.3-.1-.2-.4-.1-.3.1.5 2 1.3 4 2.8 5.4.1.2.3 0 .2-.2zM79 151c-.6-1.5-1.8-2.9-2.7-4.2-.2-.2-.5 0-.4.2.9 1.4 1.7 3 2.8 4.2.1.1.4 0 .3-.2zm2 1.2c-.6-1.7-1.8-3.3-2.6-5-.1-.2-.6-.1-.4.2.7 1.7 1.4 3.7 2.7 5 .1.1.4 0 .3-.2zm2.2 1.9c-.7-1.6-1.9-3.1-2.6-4.7-.1-.3-.7-.1-.5.2.7 1.6 1.5 3.5 2.8 4.8.2.2.4 0 .3-.3zm17.3 9.2c.1.5.3.9.4 1.4.1.4.2.9.5 1.3.2.2.6.2.6-.2s-.2-.9-.4-1.3c-.2-.5-.3-.9-.5-1.4-.2-.3-.7-.2-.6.2zm-30.8-32.2c-.2-1.6-.5-3.1-.9-4.7 0-.1-.2-.1-.2 0 .2 1.6.5 3.1.8 4.7.2.1.3.1.3 0zm1.5 3.3c-.4-1.7-.8-3.4-.9-5.2 0-.2-.3-.2-.3 0 .1 1.8.3 3.6.9 5.3.1.1.3.1.3-.1zm1.7 3.2c-.2-1.8-.6-3.6-1-5.4 0-.2-.3-.1-.3.1.3 1.8.5 3.6 1 5.4 0 .1.3 0 .3-.1zm.3-2.2c.2 1.8.7 3.5 1.7 5 .1.1.3 0 .2-.1-.8-1.6-1.3-3.2-1.6-4.9 0-.2-.3-.2-.3 0zm1.4 1.2c.4 1.9 1 3.8 2.2 5.4.1.1.3 0 .2-.1-.8-1.8-1.6-3.5-2-5.4-.1-.3-.4-.2-.4.1zm1.9 1.8c.7 2.1 1.5 4.4 2.8 6.2.1.1.4.1.3-.1-.9-2.1-1.9-4-2.7-6.2 0-.3-.5-.2-.4.1zm2.6 3.5c.6 1.3 1.1 2.7 1.9 3.8.1.2.4.1.3-.1-.4-1.4-1.2-2.7-1.8-3.9-.2-.3-.6-.1-.4.2zm1.7 1.6c.6 1.7 1.3 3.5 2.4 4.9.2.2.4-.1.3-.2-.7-1.6-1.6-3.1-2.3-4.7 0-.4-.4-.3-.4 0zm2 2.9c.9 1.7 1.9 3.5 3.2 4.8.2.1.4 0 .3-.2-1-1.6-2.2-3.1-3.2-4.8-.2-.2-.4 0-.3.2zm5.3 5.6c-.4-.9-1.2-1.8-1.7-2.7-.1-.1-.3 0-.2.1.6.9 1.1 1.9 1.7 2.7 0 .2.2 0 .2-.1zm2.2-4.4c0 2.5.7 5 2.3 6.9.2.2.4-.1.3-.2-1.1-2.2-1.9-4.2-2.2-6.6 0-.3-.4-.3-.4-.1zm5.7 10.9c-.9-2.1-2-4.1-2.8-6.3-.1-.2-.4-.1-.3.1.7 2.2 1.5 4.5 2.8 6.4.1.2.4.1.3-.2zm2.8 3.7c-1.1-2.1-2.3-4-3.1-6.3-.1-.3-.6-.2-.5.1.6 2.3 1.5 4.7 3.2 6.4.3.3.6.1.4-.2zm-4.9-16.1c-.1-2.4-.3-4.7-.3-7.1 0-.2-.3-.2-.4 0-.2 2.4-.3 4.8.2 7.1.1.4.5.3.5 0zm.3-2.7c-.5 2.5-.4 5.2.7 7.5.1.2.4.1.4-.2-.6-2.5-1-4.8-.7-7.3.1-.2-.3-.3-.4 0zm2.6 9.9c-.1-1.6-.4-3.1-.6-4.7 0-.3-.4-.3-.4 0 .1 1.6.1 3.2.6 4.7 0 .3.4.3.4 0zm6 6.8c0 .1.2.1.2 0 .1-1.6-.1-3.1-.2-4.7 0-.1-.2-.2-.3-.1v-.4c0-.1-.1 0-.1 0 .1.2 0 .4-.1.6 0 .1.1.1.1.1.1-.1.1-.2.1-.3v.1c.1 1.6.2 3.1.3 4.7zm1.5 1.6c.1-1.4 0-2.9.1-4.4 0-.2-.4-.2-.4 0-.1 1.4-.3 3-.1 4.4 0 .3.4.2.4 0zm1.6-.9c.2-1.4 0-3 0-4.4 0-.3-.5-.3-.5 0 0 1.4-.2 3 0 4.4.2.1.5.2.5 0zm-1.6-9.7c-.1-2.1-.7-4.2-1.2-6.2-.1-.2-.3-.1-.3.1.5 2 .8 4.1 1.2 6.1.1.1.4.1.3 0zm.6-3.6c-.2-1.1-.4-2.2-.7-3.3 0-.1-.3-.1-.2.1.2 1.1.4 2.2.7 3.3 0 0 .2 0 .2-.1zm.7-1.5c0-1.7-.5-3.5-1-5.2-.1-.2-.5-.1-.4.1.5 1.7.7 3.4 1 5.1 0 .2.4.2.4 0zm.8.1c-.1-2.2-.7-4.5-1.4-6.6 0-.1-.2-.1-.2.1.6 2.2.9 4.4 1.3 6.6 0 .2.3.1.3-.1zm4.3 6.5c-.3 2.9-.9 5.7-1.5 8.5-.1.2.2.3.3.1 1.1-2.7 1.5-5.7 1.5-8.6 0-.2-.3-.2-.3 0zm1.5 6.1c1-1.4 1.3-3.5 1.5-5.2 0-.3-.5-.3-.5 0-.1.9-.3 1.8-.5 2.7-.2.8-.6 1.6-.7 2.4-.1.1.1.2.2.1zm1.7-.6c1-1.4 1.5-3.3 1.8-4.9.1-.4-.5-.5-.5-.1-.4 1.7-1.2 3.2-1.7 4.8-.1.3.3.4.4.2zm1.8-1c.4-.5.5-1.1.8-1.7.3-.7.5-1.4.8-2.2.1-.4-.4-.5-.6-.1-.3.7-.5 1.4-.8 2-.2.6-.6 1.2-.6 1.8.1.2.3.3.4.2zm2.2-1.7c.7-1.2 1-2.6 1-4 0-.3-.4-.3-.5 0-.1 1.4-.5 2.6-.9 3.8 0 .2.3.4.4.2zm4-7.2c-.4 1.1-1 2.2-1.3 3.3 0 .1.2.2.2.1.6-1 .9-2.2 1.4-3.3.1-.3-.2-.4-.3-.1zm3.1-3.6c-.3.8-.6 1.7-.9 2.5-.3.8-.7 1.6-.9 2.5 0 .2.2.3.3.1.9-1.4 1.4-3.4 1.9-5 .2-.3-.3-.4-.4-.1zm.5 4c.6-1.3.9-2.9 1.2-4.2.1-.2-.3-.3-.4-.1-.5 1.3-1.1 2.8-1.2 4.2 0 .2.3.4.4.1zm2.8-4.8c-.1.5-.2.9-.3 1.4 0 .1.2.2.2 0 .2-.4.2-.9.3-1.4.1-.1-.2-.2-.2 0zm2.9-5.6c-.1 1.9-.5 3.7-.8 5.6 0 .3.4.3.5.1.7-1.7.8-3.8.8-5.6 0-.5-.5-.5-.5-.1zm1.2 4.8c.5-1.5.5-3.3.8-4.9 0-.2-.3-.4-.4-.1-.3 1.6-.8 3.4-.7 5 0 .2.3.2.3 0zm.7-1.8c0 .2.3.2.4.1.3-.6.3-1.3.4-1.9.1-.7.2-1.5.3-2.2.1-.3-.4-.5-.5-.1l-.4 2.3c-.1.6-.2 1.2-.2 1.8zm7.6-5c.1-.1-.2-.3-.3-.1-.7 1.3-1.4 2.7-2.1 4l-.6.9c.4-.9.7-1.9.9-2.8.1-.3-.3-.3-.4-.1-1.1 2.8-2.6 5.2-4.3 7.7-.2.2.2.5.4.3.6-.6 1.2-1.3 1.7-2h.1c2.1-2.1 3.6-5.2 4.6-7.9zm-5.4 3.4c.4-1.1.5-2.4.6-3.6.1-.3-.4-.4-.4-.1-.2 1.2-.5 2.4-.6 3.7 0 .1.4.2.4 0zm.6-5.5c0-3-.3-5.9-.6-8.9 0-.2-.4-.2-.4 0 .1 3 .1 6 .6 8.9 0 .3.4.2.4 0zm.7-3.6c0-1.6-.4-3.3-.6-4.9 0-.2-.4-.2-.4.1.2 1.6.3 3.3.7 4.9.1.1.3.1.3-.1zm.5-4.1c.1-1.6-.3-3.3-.5-5 0-.2-.3-.2-.3 0 .1 1.7 0 3.4.4 5 .1.3.4.3.4 0zm.8-5.5c.1-.7 0-1.6 0-2.3 0-.2-.4-.2-.4 0 0 .8-.1 1.6 0 2.3.1.2.4.2.4 0zm1-9.2c0-1.2-.3-2.5-.5-3.7 0-.3-.5-.2-.4.1.2 1.2.2 2.4.6 3.6 0 .3.3.2.3 0zm.8-2.4c0-1.6-.4-3.3-.7-4.9-.1-.2-.4-.1-.3.1.3 1.6.4 3.2.7 4.8 0 .2.3.2.3 0zM118 132.4c-.7 2.6-1.6 5-2.4 7.5-.1.2.3.4.4.2 1.3-2.3 2-4.9 2.4-7.6.1-.3-.3-.4-.4-.1zm-4.5 9.4c1-1.8 1.8-3.7 2.6-5.5.1-.2-.2-.4-.3-.2-.9 1.9-1.8 3.7-2.6 5.6 0 .2.2.2.3.1zm0-3.3c-.8 1.3-1.6 2.5-2.2 3.9-.1.1.1.2.2.1.9-1.2 1.7-2.5 2.4-3.7.1-.3-.3-.6-.4-.3zm-35.1-12c.7.1 1.3.2 2 .2-1 2.7-.5 6.6.9 9 .1.2.4.1.4-.1.3.9.7 1.7 1.2 2.6.1.2.5.1.4-.2-.9-2.5-1.8-4.9-2.5-7.5 0-.1-.1-.1-.1-.1 0-1.2.1-2.4.1-3.6 2.5.1 5.2-.4 7.6-.7 3.9-.4 7.8-.7 11.6-1.4.1 0 .1 0 .1-.1 5.3 1.2 12.2 2.8 18.4 2.2.1 2.3.3 4.5.2 6.8 0 .2.3.3.4.1.5-2.2.7-4.7.1-6.9 3.9-.4 7.5-1.7 10.2-4.4.2-.2-.1-.4-.3-.3-.5.4-.9.7-1.4 1 1.4-1.5 2.3-3.4 2.4-5.5 0-.2-.3-.2-.3 0-.4 2.4-1.4 4.5-3.1 6.1-1.7.9-3.4 1.4-5.2 1.8 2.3-1.1 4.3-3 5.1-5.4.1-.3-.3-.5-.5-.2-1.7 3-4.1 5.2-7.4 5.9-1.2.1-2.5 0-3.8-.1 3.6-.6 7-2.5 9.2-5.5.2-.2-.2-.4-.3-.3-3.4 3.3-7.2 5.3-11.7 5.4-4.3-.6-8.6-1.6-12.6-1.8.8-.9 1.2-2.1 1.1-3.2 0-.2-.4-.3-.5-.1-.3 1.7-1.1 2.9-2.4 3.9-3.3.3-7 1-10.6 1.3-2.9-.6-5.2-2.1-7.2-4.3-.2-.2-.5.1-.3.3 1.3 2.1 3.4 3.6 5.8 4.2-2.8.2-5.5.1-7.8-.6-.5-.4-1-.7-1.4-1.2-.7-.8-1.1-1.6-1.5-2.5-.1-.2-.3-.1-.3.1.2 1.1.9 2.2 1.8 3.1-2.8-1.2-5.1-3.4-6.4-7.3-.1-.2-.4-.1-.3.1 1 4.6 4.3 8.2 8.9 9.2zm7.5 15.1c-.7-1.9-1.7-3.7-2.7-5.5-.1-.2-.4 0-.3.2.8 1.9 1.6 3.7 2.7 5.4.1.2.4.1.3-.1zm-.2-2.1c.6 1.2 1.2 2.6 2.1 3.6.2.2.5 0 .4-.2-.4-1.3-1.3-2.5-2-3.6-.3-.3-.7-.1-.5.2zm-15.6-22.9c1.2-3.1 4.5-3.8 6.7-1.3.2.2.5-.1.3-.3-1.8-3.3-7.2-2.2-7.5 1.6.1.2.4.2.5 0zm13.1 3.8c-.2-.1-.3.2-.2.3 3.7 1.8 7.7 4.5 12 3.8.2 0 .1-.3 0-.3-4.2 0-8-2-11.8-3.8zm41.3-5.6c1.4-2.3 5.1-.2 5.7 1.7.5 1.7 0 3.4-.6 5.1-.1.2.3.4.4.2 1.9-1.9 2.1-5.7-.1-7.5-1.6-1.3-5.1-2.4-5.8.3 0 .3.3.4.4.2zm-23.4 5c5.6-.9 11.3-2.4 16.9-1.4.1 0 .2-.2.1-.2-4.7-2.5-12.3-.1-17.1 1.2-.3 0-.2.5.1.4zm-21.8 1.3c7.1-4.1 13.7-2.8 21.3-1.2.3.1.4-.3.1-.4-6.8-2.6-15.7-4.1-21.6 1.2-.2.2 0 .5.2.4z" fill="#1b141c" stroke-width="none" opacity="1"></path></g></g></g><g id="svga-group-mustache-single-move" transform="matrix(1,0,0,1,0,0)"><g id="svga-group-mustache-single"></g></g><g id="svga-group-nose-single-move" transform="matrix(1,0,0,1,0,0)"><g id="svga-group-nose-single"><path id="SvgjsPath11434" d="M105.06 106.65c.56.92 2.64 3.61 3.09 4.9.45 1.29-.13 3.22-1.48 3.61s-3.61-.39-3.93-.19c-.32.19-1.87 2.06-2.58 1.93-.71-.13-2.64-2.13-3.03-2.13-.39 0-2.13.45-2.97.45-.84 0-2.9-.71-2.64-2.51.26-1.81 2.45-5.54 2.9-6.06.45-.52 1.48-2.32 1.74-3.42s.58-7.03.71-8.38c.13-1.35 1.35-2.97 2.58-3.09 1.23-.13 3.35.77 3.55 2.9.19 2.13.58 6.38.77 8.12.19 1.74.58 2.71 1.29 3.87z" fill="#f0c7b1" stroke-width="none" opacity="1" transform="translate(0 1)" stroke="none"></path><path id="SvgjsPath11435" d="M97.62 85.76c-.84 3.5-.96 7.24-1.34 10.81-.4 3.83-1.14 7.78-1.09 11.63 0 .31.48.39.55.07.78-3.52.88-7.26 1.24-10.84.39-3.82 1.1-7.79.98-11.63 0-.18-.29-.24-.34-.04z" fill="#c27b55" stroke-width="none" opacity="1" transform="translate(0 1)" stroke="none"></path><path id="SvgjsPath11436" d="M94.46 106.19c-1.03 1.37-1.9 2.87-2.65 4.41-.49 1-1.09 2.17-.77 3.32.53 1.89 2.93 2.49 4.5 1.58.47-.27.26-.99-.27-1-.92-.01-1.98.28-2.72-.5-.88-.94-.01-2.63.38-3.57.58-1.39 1.28-2.72 1.83-4.12.07-.19-.2-.26-.3-.12z" fill="#c27b55" stroke-width="none" opacity="1" transform="translate(0 1)" stroke="none"></path><path id="SvgjsPath11437" d="M94.31 113.98c2.84-.21 3.38 3.37 6.07 3.45 2.31.07 2.5-3.41 4.69-3.3.26.01.34-.35.13-.47-2.49-1.47-2.95 2.86-5.24 2.59-1.36-.16-2.32-2.16-3.54-2.73-.83-.39-1.43-.36-2.23.02-.22.09-.11.46.12.44z" fill="#c27b55" stroke-width="none" opacity="1" transform="translate(0 1)" stroke="none"></path><path id="SvgjsPath11438" d="M104.29 115.6c1.87.42 4.05-.16 4.49-2.24.22-1.04-.13-2.07-.67-2.95-.89-1.44-2.03-2.66-2.87-4.15-.14-.25-.49-.12-.51.14-.11 1.67 1.13 2.83 2.02 4.12.82 1.19 1.53 2.83.15 4-.63.54-1.83.44-2.6.59-.26.04-.25.43-.01.49z" fill="#c27b55" stroke-width="none" opacity="1" transform="translate(0 1)" stroke="none"></path><path id="SvgjsPath11439" d="M102.45 109.98c-.41-.74-1.47-.85-2.06-.26-.05.05-.24.29-.3.36-.07.09-.2.26-.23.29-.07.1-.12.21-.18.32l-.12.28c0-.01-.01.01-.03.05-.06.06-.12.13-.18.2-.18.19-.36.38-.5.6-.42.67-.08 1.42.48 1.84.87.65 2.13.13 2.74-.61.76-.89.96-2.03.38-3.07z" fill="#f8d5c3" stroke-width="none" opacity="1" transform="translate(0 1)" stroke="none"></path></g></g><g id="svga-group-hair-front"><path id="SvgjsPath10823" d="M61.3 97.9s.9-21.3 1.5-25.4c.5-4.2 2.5-15.6 6.4-18.7s7.1-6 16.9-4 11.4 4 18.5 2.4 11.3-3.1 11.3-3.1 5.6 1.1 9.3 2c3.6.9 6.5 4.5 9.1 10.9 2.5 6.4 5.6 18.9 4.9 27.8-.7 8.9.9 7.6.9 7.6l3.3-7.3s3.1-5.8 1.6-10.5c0 0 .7-4.2.6-6.4s-1.8-5.3-1.8-5.3.7-6.9 0-9.3-1.3-3.3-1.3-3.3.6-4.2-1.3-7.3-5.4-6-5.4-6-4.7-12-8.9-14-6-5.1-11.3-6c-5.3-.9-11.6.5-11.6.5s-2.5-2-8.2-.2c0 0-4-1.6-10.4.9s-8.7 6.4-8.7 6.4-6.4 2.2-8.2 5.3c0 0-8.2 4-10.4 10.9s-.9 10.7-.9 10.7-2.5 5.8-.7 11.5c0 0-3.1 3.3-.9 11.3 0 0-1.8 3.8.5 9.4 2.3 5.7 2.1 9 5.2 9.2z" fill="#2a232b" stroke-width="none" opacity="1" stroke="none"></path><path id="SvgjsPath10824" d="M144.4 67.3c.7-4.2.2-8.7-1.3-12.2 0-.1-.1-.2-.2-.2.1-1.3.1-2.6-.2-4-.8-4.1-3.6-6.7-6.7-9.3-.1 0-.1-.1-.1-.1-1.3-4.4-3.6-8.6-6.6-11.9-6.3-7.1-17.5-11.7-26.2-6-.2.2-.1.6.2.5 9.9-4 19.9-.2 26.2 8.2 5.2 6.9 6.2 14.6 5.6 23-.1.6.9.7 1.1.2 1.1-3.9 1.1-8.1.1-12.1 1.5 1.7 3.3 3.2 4.3 5.2 2.7 5.4.1 11.5-3.1 16-.4.5.5 1 .8.5 1.9-2.6 3.5-5.5 4.2-8.6.6 3.4 1 6.6.4 10.1-.6 3.4-2.2 6.3-3.6 9.5-.2.4.3.9.7.5 1.8-1.9 3-4.4 3.8-7.2.4 2 .7 3.9.4 6-.2 2.2-1.2 4.1-1.5 6.2 0 .3.4.5.6.3.4-.4.8-.9 1.1-1.5 0 3.4-.7 6.4-1.9 9.6-.5 1.3-1.7 4.8-3 6.6.7-10.4-.3-22-3.5-31.8-1.7-5.2-4.7-10.9-9.5-13.5.6 0 1.3-.1 1.9-.2.5-.1.5-.9 0-1-5.9-1.1-11.6-1.8-16.8-5.2-6.8-4.5-11.4-12.8-9.3-21 .1-.5-.6-.7-.8-.2-3.9 9.8 3.3 20 12.6 24.8-2.1.7-4.3 1.3-6.4 1.8-8.5 0-17.6-2.6-20.1-11.9-2.8-10.2 6.4-18 16.1-15.9.4.1.6-.5.2-.6-3-1.2-5.9-1.2-8.6-.3-6.4-.8-13.1 1-17.6 5.7h-.2c-3.6 2.1-7.2 4.2-9.8 7.2-7.6 3.3-14.3 13.7-11.7 21.8-1.1 3.3-1.4 7.2-.8 10.9-1.5 3-2.1 8.1-.8 11.8-1.4 4.4.5 9.3 2.2 13.4 1.2 2.8 1 5.2 4 6.4.2.1.4.1.5-.1.4-.1.7-.3.8-.8.1-11.4.8-22.8 3.6-33.8 1.2-4.8 2.8-10.3 7.4-12.8 5.2-2.9 12-1.2 17.4.2h.1c8 3.5 18.2 2.3 25.6-2.1 2.5 1 5.1 1.7 7.6 1.9 7.9 2.9 10.9 12.9 12.2 20.6 1.6 8.8 2.4 17.4 1.8 26.3-.1.8.9.9 1.3.5 2.6-1.3 2.5-3.6 3.6-6.3 1.8-4.1 3.5-9.1 2.2-13.4 1.8-3.6 1.2-8.7-.3-11.7zM66.2 57c-5.3 12.1-5.6 27-5.7 40-1.4-1.6-2.7-5.5-3.3-7-1.2-3.2-2-6.2-1.9-9.6.3.6.7 1.1 1.1 1.5.2.2.7.1.6-.3-.3-2.1-1.3-4.1-1.5-6.2-.2-2.1 0-4 .5-6 .7 2.7 2 5.3 3.8 7.2.4.4.9-.1.7-.5-1.4-3.2-3-6-3.6-9.5-.5-2.9-.3-5.7.1-8.6.7 1.3 1.7 2.6 3 3.7.4.3 1.1-.1.8-.6-6.4-9-2.3-19 5.9-24.7-.6 1-1.1 2.2-1.4 3.4-1.1 4.2.7 9.5 5 11.1.4.2.7-.4.4-.7-4.3-4.4-5.8-9.6-1.6-15 .2-.2.3-.4.5-.5.1 0 .1-.1.2-.1.1-.1.2-.2.2-.3 1.7-1.7 3.9-2.8 5.9-4.2-3.5 5.8-2.8 13.4 2.9 17.4.3.2.7-.3.4-.5-5-5-5.6-12.1-1.2-17.7 1.5-1.9 3.3-3.3 5.2-4.3-5.4 5.2-4.8 15.3-.2 20.9 1.1 1.4 2.3 2.5 3.7 3.5-8-2.2-16.7-1-20.5 7.6zm21-9.5c-8.1-6.1-8.7-18.1-.3-24 2.2-.6 4.5-1 6.8-1.1-5.1 2.5-8.7 8.2-8.1 14.3.9 8.2 7.6 13.5 15.1 14.9-4.6.2-9.2-.8-13.5-4.1z" fill="#1b141c" stroke-width="none" opacity="1" stroke="none"></path><path id="SvgjsPath10825" d="M127.9 46.8c-5.5 0-10.3-2.4-13.9-6.4-3.4-3.7-8.8-10.4-6.5-15.8.2-.4-.3-.7-.5-.3-2.8 5.2 1.5 11 4.7 15 4 5 9.6 8.8 16.2 8.1.4 0 .4-.6 0-.6zM105 44.4c-4.9-4.8-10.2-10.6-7-18.1.2-.4-.3-.7-.5-.3-3.8 7.3 1.3 14.6 7.2 18.8.2.2.5-.2.3-.4zm-.4 2.1c-6.3-4.2-12.4-9.2-12.3-17.4 0-.3-.5-.3-.5 0-.4 8.2 5.5 14.6 12.6 17.8.2 0 .4-.2.2-.4zm2 .8C100.8 47 95.8 45 92 40.5c-.2-.2-.6.1-.4.4 3.6 4.4 9.2 7.3 14.9 7 .4-.1.4-.5.1-.6zm-17.4-2.1C84 40 81.4 32.7 87 26.6c.3-.4-.2-.9-.5-.5-6.2 5.6-4.3 15.4 2.2 20 .4.2.9-.5.5-.9zM80.6 44c-3-4-3.9-8.9-1.8-13.5.2-.3-.3-.6-.5-.3-2.4 4.6-1.9 10.4 1.9 14.1.2.2.5 0 .4-.3zm-8.7-8.3c.1-.3-.3-.4-.4-.1-.7 2.6-.8 5.6.4 8 .1.3.6.1.5-.2-.7-2.6-1.1-5-.5-7.7zm0 10.2c-.8-1-1.6-1.9-2.1-3.1-.1-.2-.4 0-.3.1.5 1.2 1.2 2.4 2.3 3.2 0 .1.2-.1.1-.2zM63.8 53c-2.1-3.9-2.4-7.4-1.2-11.6.1-.4-.5-.6-.6-.2-1.3 3.8-1.9 9.1 1.3 12.2.2.4.7 0 .5-.4zm-2 3.6c-1.5-2.5-2.4-4.8-2.2-7.7 0-.2-.3-.2-.4 0-.3 2.8.2 5.9 2.2 8 .3.2.6 0 .4-.3zm-2.2 15.1c-1.2-3.3-2-6.4-1.7-10.1 0-.2-.3-.3-.4 0-.5 3.5-.3 7.3 1.5 10.4.2.2.7 0 .6-.3zM56 74.4c-.1-.2-.3 0-.3.1.4 1.1.7 2.2 1.3 3.2.1.2.4.1.3-.1-.2-1.1-.8-2.2-1.3-3.2zM139.8 52c-.2-1.5-.3-4.5-2.2-4.6-.3 0-.4.4-.1.5 1.6.8 1.5 5.2 1.5 6.6-.1 2.1-.6 4-1.3 5.9-.1.3.4.5.6.2 1.3-2.6 1.8-5.6 1.5-8.6zm2.3 9.7c-.1-.4-.6-.2-.6.2.6 3.1-.3 5.8-1.9 8.4-.2.3.2.6.5.4 2.2-2.4 2.8-6 2-9zm1.2 11.7c0-.3-.5-.3-.5 0 .2 1.8-.1 3.5-.5 5.2 0 .2.2.3.3.1.8-1.6.9-3.5.7-5.3zm-22.7-46.8c-.3-.1-.4.3-.1.4 7.2 3 11.4 13.5 13.6 20.3.1.3.5.2.4-.1-1.7-7.2-6.5-17.8-13.9-20.6z" fill="#3a353a" stroke-width="none" opacity="1" stroke="none"></path></g><g id="svga-group-glasses-single-move" transform="matrix(1,0,0,1,0,0)"><g id="svga-group-glasses-single"><path id="SvgjsPath14266" d="M80.93 82.78c-5.6-.23-12.71.11-14.86 2.8-2.15 2.69-2.26 13.25 0 17.55 2.26 4.31 12.92 5.6 20.79 3.23 7.86-2.36 10.98-18.3 10.34-20.13-.65-1.83-8.4-3.12-16.27-3.45z" fill="url(#SvgjsLinearGradient14267)" opacity="1"></path><path id="SvgjsPath14274" d="M119.07 82.78c5.6-.23 12.71.11 14.86 2.8s2.26 13.25 0 17.55-12.92 5.6-20.79 3.23c-7.86-2.37-10.98-18.31-10.34-20.14.65-1.82 8.4-3.11 16.27-3.44z" fill="url(#SvgjsLinearGradient14275)" opacity="1"></path><path id="SvgjsPath14282" d="M135.96 82.89c-2.3-1.18-10.57-1.66-16.77-1.46-8.47.27-15.56.76-19.19.78-3.63-.02-10.72-.51-19.19-.78-6.2-.2-14.47.28-16.77 1.46s-1.81 3.55-.97 10.65c.84 7.1 1.04 13.57 9.05 14.47 8 .9 14.06.56 17.68-2.23 3.62-2.78 7.24-11.48 8.14-12.94.76-1.23 1.52-1.62 2.07-1.71.55.09 1.31.48 2.07 1.71.9 1.46 4.52 10.16 8.14 12.94 3.62 2.78 9.67 3.13 17.68 2.23 8-.9 8.21-7.38 9.05-14.47.82-7.11 1.31-9.47-.99-10.65zM92.82 98.46c-3.94 7.45-6.36 8-15.89 8.22-9.53.22-10.63-5.37-10.85-9.31-.22-3.94-.77-8.11 1.64-10.96 2.16-2.55 9.58-2.45 14.62-2 4.13.37 7.95.76 10.48 2.11 2.77 1.48 3.94 4.49 0 11.94zm41.1-1.09c-.22 3.94-1.31 9.53-10.85 9.31-9.53-.22-11.94-.77-15.89-8.22-3.94-7.45-2.77-10.47 0-11.94 2.53-1.35 6.35-1.74 10.48-2.11 5.04-.45 12.45-.55 14.62 2 2.41 2.85 1.86 7.01 1.64 10.96z" fill="#26120b" stroke-width="none" opacity="1"></path><path id="SvgjsPath14283" d="M135.95 82.91c-1.32-.58-2.78-.75-4.21-.95-1.43-.18-2.88-.28-4.32-.36-2.89-.15-5.78-.16-8.67-.05-5.78.2-11.55.6-17.34.83-2.91.09-5.8-.08-8.69-.22l-8.67-.42c-2.89-.13-5.78-.24-8.67-.15-2.89.07-5.78.22-8.63.68-.71.13-1.42.26-2.09.5-.67.22-1.31.6-1.67 1.19-.38.59-.49 1.32-.52 2.03-.03.72.02 1.44.07 2.16.26 2.88.65 5.75.98 8.62.19 1.43.4 2.86.77 4.26.37 1.39.91 2.75 1.79 3.87.87 1.13 2.1 1.95 3.45 2.43 1.36.47 2.8.59 4.23.73 2.87.24 5.77.38 8.64.08 2.83-.3 5.75-1.07 7.84-3.01 2.02-2 3.44-4.57 4.81-7.1.67-1.28 1.31-2.57 1.95-3.87.33-.64.62-1.32 1.09-1.93.45-.59 1.06-1.16 1.88-1.31l.04-.01.04.01c.78.14 1.38.67 1.83 1.24.46.57.76 1.23 1.07 1.84.62 1.25 1.22 2.49 1.87 3.72 1.3 2.43 2.66 4.88 4.5 6.9 1.83 2.03 4.58 2.94 7.27 3.33 2.72.4 5.5.35 8.26.18 1.37-.12 2.78-.19 4.12-.44 1.34-.27 2.65-.74 3.72-1.59 1.08-.83 1.87-2 2.4-3.26.53-1.27.85-2.62 1.08-3.98.44-2.73.7-5.51 1.06-8.26.16-1.38.34-2.76.36-4.14 0-.69-.03-1.39-.27-2.04-.24-.68-.75-1.2-1.37-1.51zm.02-.05c.63.31 1.16.84 1.4 1.5.25.66.29 1.37.3 2.06 0 1.39-.17 2.78-.32 4.16-.34 2.76-.57 5.52-.99 8.28-.22 1.37-.53 2.75-1.06 4.05-.53 1.3-1.33 2.52-2.44 3.4-1.11.89-2.47 1.41-3.84 1.69-1.39.28-2.77.36-4.16.5-2.77.21-5.58.31-8.36-.09-1.39-.2-2.77-.53-4.08-1.08-1.3-.55-2.52-1.35-3.48-2.41-1.9-2.1-3.26-4.56-4.57-7.01-.65-1.23-1.25-2.49-1.87-3.73-.31-.62-.6-1.24-1.01-1.76-.4-.52-.93-.96-1.53-1.07h.08c-.63.11-1.18.58-1.59 1.13-.43.55-.71 1.2-1.04 1.85-.64 1.3-1.28 2.6-1.96 3.88-.68 1.28-1.39 2.55-2.18 3.77-.8 1.22-1.65 2.42-2.73 3.43-2.22 2.03-5.23 2.77-8.1 3.05-2.9.28-5.82.11-8.7-.15-1.43-.15-2.9-.28-4.29-.77-1.38-.5-2.65-1.35-3.54-2.53-.9-1.17-1.44-2.56-1.81-3.96-.36-1.41-.57-2.85-.74-4.29l-.49-4.31c-.17-1.44-.36-2.87-.49-4.32-.06-.72-.11-1.45-.09-2.18.03-.72.13-1.49.53-2.13.4-.66 1.08-1.06 1.78-1.3.69-.25 1.41-.38 2.12-.52 5.74-.9 11.57-.9 17.35-.66l8.68.36c2.89.1 5.78.34 8.66.27 5.78-.17 11.56-.5 17.35-.65 2.9-.09 5.79-.05 8.68.13 1.45.09 2.89.21 4.32.4 1.42.23 2.88.41 4.21 1.01z" fill="#070201" stroke-width="none" opacity="1"></path><path id="SvgjsPath14284" d="M92.84 98.48c-.84 1.59-1.73 3.17-2.9 4.56-.58.69-1.25 1.32-2 1.83-.77.48-1.6.9-2.48 1.14-1.75.55-3.58.67-5.37.79-1.8.09-3.6.16-5.42.02-1.81-.17-3.63-.65-5.16-1.68-1.54-1.02-2.57-2.68-3.02-4.43-.47-1.76-.48-3.58-.63-5.37-.11-1.79-.2-3.62.13-5.42.16-.9.45-1.78.9-2.58.44-.8 1.07-1.55 1.91-1.98 1.65-.88 3.5-1.13 5.29-1.3 3.62-.3 7.25-.03 10.82.36 1.79.2 3.6.42 5.36.91.88.25 1.74.56 2.55.99.82.42 1.56 1.06 2.03 1.87.48.81.64 1.76.61 2.67-.04.91-.22 1.81-.48 2.67-.52 1.72-1.3 3.36-2.14 4.95zm-.05-.03c.81-1.6 1.59-3.24 2.05-4.97.43-1.7.68-3.64-.26-5.15-.93-1.51-2.76-2.12-4.44-2.57-1.73-.43-3.5-.67-5.29-.85-3.57-.36-7.16-.66-10.73-.4-1.76.16-3.58.38-5.15 1.17-.78.39-1.36 1.04-1.81 1.81-.45.76-.74 1.6-.92 2.47-.35 1.75-.29 3.56-.2 5.35.11 1.79.09 3.61.61 5.33.48 1.71 1.5 3.29 3 4.24 1.49.97 3.27 1.37 5.03 1.51 1.77.14 3.57.02 5.37-.04 1.79-.09 3.59-.2 5.31-.65.87-.2 1.68-.58 2.45-1.03.75-.48 1.43-1.07 2.03-1.73 1.2-1.33 2.09-2.92 2.95-4.49z" fill="#070201" stroke-width="none" opacity="1"></path><path id="SvgjsPath14285" d="M133.95 97.37c-.1 1.79-.35 3.63-1.23 5.23-.83 1.62-2.36 2.85-4.07 3.48-1.72.64-3.56.83-5.37.82-1.81-.01-3.61-.09-5.41-.26-1.79-.21-3.63-.5-5.24-1.41-1.63-.87-2.84-2.32-3.82-3.82-.97-1.53-1.83-3.11-2.61-4.74-.75-1.64-1.44-3.34-1.63-5.16-.1-.9-.06-1.85.28-2.73.34-.88.98-1.62 1.76-2.13 1.58-.99 3.38-1.44 5.15-1.77 1.79-.32 3.58-.5 5.38-.68 1.79-.18 3.6-.28 5.41-.29 1.81-.01 3.63.06 5.42.38.89.18 1.79.39 2.64.76.84.36 1.66.94 2.15 1.72 1.06 1.53 1.39 3.41 1.43 5.2.04 1.81-.13 3.6-.24 5.4zm-.05 0c.08-1.8.25-3.6.15-5.39-.1-1.78-.49-3.6-1.55-5.02-1-1.48-2.9-1.9-4.61-2.2a33.97 33.97 0 0 0-5.34-.33c-1.79.01-3.58.14-5.37.29-1.79.16-3.58.32-5.34.62-1.75.31-3.52.72-5.03 1.63-.73.46-1.34 1.13-1.66 1.93-.34.8-.4 1.7-.31 2.58.16 1.77.82 3.47 1.54 5.11.75 1.63 1.58 3.23 2.59 4.71 1 1.47 2.21 2.87 3.8 3.67 1.56.86 3.38 1.08 5.14 1.25 1.78.16 3.58.19 5.38.24 1.78.04 3.58-.13 5.26-.68 1.68-.55 3.19-1.68 4.06-3.24.9-1.56 1.16-3.39 1.29-5.17z" fill="#070201" stroke-width="none" opacity="1"></path></g></g></g></g></g><rect id="svga-credit-rect" width="200" height="15" x="0" y="185" fill="#ecf0f1" opacity="0.5" style="display: none;"></rect><text id="svga-credit-text" font-family="Avenir Next, Roboto, Helvetica, Arial, sans-serif" font-size="10px" text-anchor="start" font-weight="400" size="10px" anchor="start" weight="400" fill="#333333" x="33.40447998046875" y="182.60824704170227" style="display: none;"><tspan id="SvgjsTspan10583" dy="13" x="33.40447998046875">Created on AvatarMaker.com</tspan></text></g><defs id="SvgjsDefs10530"><linearGradient id="SvgjsLinearGradient13641" x1="81.1774" y1="84.6913" x2="81.1774" y2="107.2461" gradientUnits="userSpaceOnUse" class="svga-on-canvas-glasses-gradient-single-0-null"><stop id="SvgjsStop13642" stop-opacity="1" stop-color="#9bc2cf" offset="0" ></stop><stop id="SvgjsStop13643" stop-opacity="0" stop-color="#6086c4" offset="1" ></stop></linearGradient><linearGradient id="SvgjsLinearGradient13645" x1="-18.8226" y1="84.6913" x2="-18.8226" y2="107.2461" gradientTransform="matrix(-1 0 0 1 100 0)" gradientUnits="userSpaceOnUse" class="svga-on-canvas-glasses-gradient-single-1-null"><stop id="SvgjsStop13646" stop-opacity="1" stop-color="#9bc2cf" offset="0" ></stop><stop id="SvgjsStop13647" stop-opacity="0" stop-color="#6086c4" offset="1" ></stop></linearGradient><linearGradient id="SvgjsLinearGradient13689" x1="81.1774" y1="84.6913" x2="81.1774" y2="107.2461" gradientUnits="userSpaceOnUse" class="svga-on-canvas-glasses-gradient-single-0-null"><stop id="SvgjsStop13690" stop-opacity="1" stop-color="#9bc2cf" offset="0" ></stop><stop id="SvgjsStop13691" stop-opacity="0" stop-color="#6086c4" offset="1" ></stop></linearGradient><linearGradient id="SvgjsLinearGradient13693" x1="-18.8226" y1="84.6913" x2="-18.8226" y2="107.2461" gradientTransform="matrix(-1 0 0 1 100 0)" gradientUnits="userSpaceOnUse" class="svga-on-canvas-glasses-gradient-single-1-null"><stop id="SvgjsStop13694" stop-opacity="1" stop-color="#9bc2cf" offset="0" ></stop><stop id="SvgjsStop13695" stop-opacity="0" stop-color="#6086c4" offset="1" ></stop></linearGradient><linearGradient id="SvgjsLinearGradient13737" x1="80.0682" y1="83.2839" x2="80.0682" y2="108.722" gradientUnits="userSpaceOnUse" class="svga-on-canvas-glasses-gradient-single-0-null"><stop id="SvgjsStop13738" stop-opacity="1" stop-color="#899ba1" offset="0" ></stop><stop id="SvgjsStop13739" stop-opacity="0.6554" stop-color="#7490b3" offset="0.3446" ></stop><stop id="SvgjsStop13740" stop-opacity="0.2966" stop-color="#6589c0" offset="0.7034" ></stop><stop id="SvgjsStop13741" stop-opacity="0" stop-color="#6086c4" offset="1" ></stop></linearGradient><linearGradient id="SvgjsLinearGradient13743" x1="-19.9318" y1="83.2839" x2="-19.9318" y2="108.722" gradientTransform="matrix(-1 0 0 1 100 0)" gradientUnits="userSpaceOnUse" class="svga-on-canvas-glasses-gradient-single-1-null"><stop id="SvgjsStop13744" stop-opacity="1" stop-color="#899ba1" offset="0" ></stop><stop id="SvgjsStop13745" stop-opacity="0.6554" stop-color="#7490b3" offset="0.3446" ></stop><stop id="SvgjsStop13746" stop-opacity="0.2966" stop-color="#6589c0" offset="0.7034" ></stop><stop id="SvgjsStop13747" stop-opacity="0" stop-color="#6086c4" offset="1" ></stop></linearGradient><linearGradient id="SvgjsLinearGradient13805" x1="80.8481" y1="82.7246" x2="80.8481" y2="107.5423" gradientUnits="userSpaceOnUse" class="svga-on-canvas-glasses-gradient-single-0-null"><stop id="SvgjsStop13806" stop-opacity="1" stop-color="#3d2d1c" offset="0.0208" ></stop><stop id="SvgjsStop13807" stop-opacity="0.6291" stop-color="#402e1c" offset="0.3825" ></stop><stop id="SvgjsStop13808" stop-opacity="0.3897" stop-color="#48321d" offset="0.6159" ></stop><stop id="SvgjsStop13809" stop-opacity="0.1881" stop-color="#57381f" offset="0.8124" ></stop><stop id="SvgjsStop13810" stop-opacity="7.593334e-03" stop-color="#6c4221" offset="0.9884" ></stop><stop id="SvgjsStop13811" stop-opacity="0" stop-color="#6d4221" offset="0.9958" ></stop></linearGradient><linearGradient id="SvgjsLinearGradient13813" x1="-18.8571" y1="82.7246" x2="-18.8571" y2="107.5423" gradientTransform="matrix(-1 0 0 1 100.2947 0)" gradientUnits="userSpaceOnUse" class="svga-on-canvas-glasses-gradient-single-1-null"><stop id="SvgjsStop13814" stop-opacity="1" stop-color="#3d2d1c" offset="0.0208" ></stop><stop id="SvgjsStop13815" stop-opacity="0.6291" stop-color="#402e1c" offset="0.3825" ></stop><stop id="SvgjsStop13816" stop-opacity="0.3897" stop-color="#48321d" offset="0.6159" ></stop><stop id="SvgjsStop13817" stop-opacity="0.1881" stop-color="#57381f" offset="0.8124" ></stop><stop id="SvgjsStop13818" stop-opacity="7.593334e-03" stop-color="#6c4221" offset="0.9884" ></stop><stop id="SvgjsStop13819" stop-opacity="0" stop-color="#6d4221" offset="0.9958" ></stop></linearGradient><linearGradient id="SvgjsLinearGradient13893" x1="80.0429" y1="88.1094" x2="80.0429" y2="107.7139" gradientUnits="userSpaceOnUse" class="svga-on-canvas-glasses-gradient-single-0-null"><stop id="SvgjsStop13894" stop-opacity="1" stop-color="#bfeaf2" offset="0" ></stop><stop id="SvgjsStop13895" stop-opacity="0.649" stop-color="#a1cae3" offset="0.351" ></stop><stop id="SvgjsStop13896" stop-opacity="0" stop-color="#6086c4" offset="1" ></stop></linearGradient><linearGradient id="SvgjsLinearGradient13898" x1="-19.9571" y1="88.1094" x2="-19.9571" y2="107.7139" gradientTransform="matrix(-1 0 0 1 100 0)" gradientUnits="userSpaceOnUse" class="svga-on-canvas-glasses-gradient-single-1-null"><stop id="SvgjsStop13899" stop-opacity="1" stop-color="#bfeaf2" offset="0" ></stop><stop id="SvgjsStop13900" stop-opacity="0.649" stop-color="#a1cae3" offset="0.351" ></stop><stop id="SvgjsStop13901" stop-opacity="0" stop-color="#6086c4" offset="1" ></stop></linearGradient><linearGradient id="SvgjsLinearGradient13954" x1="80.0682" y1="83.2839" x2="80.0682" y2="108.722" gradientUnits="userSpaceOnUse" class="svga-on-canvas-glasses-gradient-single-0-null"><stop id="SvgjsStop13955" stop-opacity="1" stop-color="#899ba1" offset="0" ></stop><stop id="SvgjsStop13956" stop-opacity="0.6554" stop-color="#7490b3" offset="0.3446" ></stop><stop id="SvgjsStop13957" stop-opacity="0.2966" stop-color="#6589c0" offset="0.7034" ></stop><stop id="SvgjsStop13958" stop-opacity="0" stop-color="#6086c4" offset="1" ></stop></linearGradient><linearGradient id="SvgjsLinearGradient13960" x1="-19.9318" y1="83.2839" x2="-19.9318" y2="108.722" gradientTransform="matrix(-1 0 0 1 100 0)" gradientUnits="userSpaceOnUse" class="svga-on-canvas-glasses-gradient-single-1-null"><stop id="SvgjsStop13961" stop-opacity="1" stop-color="#899ba1" offset="0" ></stop><stop id="SvgjsStop13962" stop-opacity="0.6554" stop-color="#7490b3" offset="0.3446" ></stop><stop id="SvgjsStop13963" stop-opacity="0.2966" stop-color="#6589c0" offset="0.7034" ></stop><stop id="SvgjsStop13964" stop-opacity="0" stop-color="#6086c4" offset="1" ></stop></linearGradient><linearGradient id="SvgjsLinearGradient14022" x1="79.91" y1="76.79" x2="79.91" y2="108.93" gradientUnits="userSpaceOnUse" class="svga-on-canvas-glasses-gradient-single-0-null"><stop id="SvgjsStop14023" stop-opacity="1" stop-color="#b4c0cf" offset="0" ></stop><stop id="SvgjsStop14024" stop-opacity="0.9374" stop-color="#abbace" offset="0.0626" ></stop><stop id="SvgjsStop14025" stop-opacity="0.679" stop-color="#8aa3ca" offset="0.321" ></stop><stop id="SvgjsStop14026" stop-opacity="0.4305" stop-color="#7393c6" offset="0.5695" ></stop><stop id="SvgjsStop14027" stop-opacity="0.1987" stop-color="#6589c5" offset="0.8013" ></stop><stop id="SvgjsStop14028" stop-opacity="0" stop-color="#6086c4" offset="1" ></stop></linearGradient><linearGradient id="SvgjsLinearGradient14030" x1="120.1" y1="125.13" x2="120.1" y2="92.99" gradientTransform="matrix(1 0 0 -1 0 202)" gradientUnits="userSpaceOnUse" class="svga-on-canvas-glasses-gradient-single-1-null"><stop id="SvgjsStop14031" stop-opacity="1" stop-color="#b4c0cf" offset="0" ></stop><stop id="SvgjsStop14032" stop-opacity="0.9374" stop-color="#abbace" offset="0.0626" ></stop><stop id="SvgjsStop14033" stop-opacity="0.679" stop-color="#8aa3ca" offset="0.321" ></stop><stop id="SvgjsStop14034" stop-opacity="0.4305" stop-color="#7393c6" offset="0.5695" ></stop><stop id="SvgjsStop14035" stop-opacity="0.1987" stop-color="#6589c5" offset="0.8013" ></stop><stop id="SvgjsStop14036" stop-opacity="0" stop-color="#6086c4" offset="1" ></stop></linearGradient><linearGradient id="SvgjsLinearGradient14106" x1="80.0682" y1="83.2839" x2="80.0682" y2="108.722" gradientUnits="userSpaceOnUse" class="svga-on-canvas-glasses-gradient-single-0-null"><stop id="SvgjsStop14107" stop-opacity="1" stop-color="#899ba1" offset="0" ></stop><stop id="SvgjsStop14108" stop-opacity="0.6554" stop-color="#7490b3" offset="0.3446" ></stop><stop id="SvgjsStop14109" stop-opacity="0.2966" stop-color="#6589c0" offset="0.7034" ></stop><stop id="SvgjsStop14110" stop-opacity="0" stop-color="#6086c4" offset="1" ></stop></linearGradient><linearGradient id="SvgjsLinearGradient14112" x1="-19.9318" y1="83.2839" x2="-19.9318" y2="108.722" gradientTransform="matrix(-1 0 0 1 100 0)" gradientUnits="userSpaceOnUse" class="svga-on-canvas-glasses-gradient-single-1-null"><stop id="SvgjsStop14113" stop-opacity="1" stop-color="#899ba1" offset="0" ></stop><stop id="SvgjsStop14114" stop-opacity="0.6554" stop-color="#7490b3" offset="0.3446" ></stop><stop id="SvgjsStop14115" stop-opacity="0.2966" stop-color="#6589c0" offset="0.7034" ></stop><stop id="SvgjsStop14116" stop-opacity="0" stop-color="#6086c4" offset="1" ></stop></linearGradient><linearGradient id="SvgjsLinearGradient14174" x1="80.8481" y1="82.7246" x2="80.8481" y2="107.5423" gradientUnits="userSpaceOnUse" class="svga-on-canvas-glasses-gradient-single-0-null"><stop id="SvgjsStop14175" stop-opacity="1" stop-color="#3d2d1c" offset="0.0208" ></stop><stop id="SvgjsStop14176" stop-opacity="0.6291" stop-color="#402e1c" offset="0.3825" ></stop><stop id="SvgjsStop14177" stop-opacity="0.3897" stop-color="#48321d" offset="0.6159" ></stop><stop id="SvgjsStop14178" stop-opacity="0.1881" stop-color="#57381f" offset="0.8124" ></stop><stop id="SvgjsStop14179" stop-opacity="7.593334e-03" stop-color="#6c4221" offset="0.9884" ></stop><stop id="SvgjsStop14180" stop-opacity="0" stop-color="#6d4221" offset="0.9958" ></stop></linearGradient><linearGradient id="SvgjsLinearGradient14182" x1="-18.8571" y1="82.7246" x2="-18.8571" y2="107.5423" gradientTransform="matrix(-1 0 0 1 100.2947 0)" gradientUnits="userSpaceOnUse" class="svga-on-canvas-glasses-gradient-single-1-null"><stop id="SvgjsStop14183" stop-opacity="1" stop-color="#3d2d1c" offset="0.0208" ></stop><stop id="SvgjsStop14184" stop-opacity="0.6291" stop-color="#402e1c" offset="0.3825" ></stop><stop id="SvgjsStop14185" stop-opacity="0.3897" stop-color="#48321d" offset="0.6159" ></stop><stop id="SvgjsStop14186" stop-opacity="0.1881" stop-color="#57381f" offset="0.8124" ></stop><stop id="SvgjsStop14187" stop-opacity="7.593334e-03" stop-color="#6c4221" offset="0.9884" ></stop><stop id="SvgjsStop14188" stop-opacity="0" stop-color="#6d4221" offset="0.9958" ></stop></linearGradient><linearGradient id="SvgjsLinearGradient14267" x1="80.8481" y1="82.7246" x2="80.8481" y2="107.5423" gradientUnits="userSpaceOnUse" class="svga-on-canvas-glasses-gradient-single-0-null"><stop id="SvgjsStop14268" stop-opacity="1" stop-color="#3d2d1c" offset="0.0208" ></stop><stop id="SvgjsStop14269" stop-opacity="0.6291" stop-color="#402e1c" offset="0.3825" ></stop><stop id="SvgjsStop14270" stop-opacity="0.3897" stop-color="#48321d" offset="0.6159" ></stop><stop id="SvgjsStop14271" stop-opacity="0.1881" stop-color="#57381f" offset="0.8124" ></stop><stop id="SvgjsStop14272" stop-opacity="7.593334e-03" stop-color="#6c4221" offset="0.9884" ></stop><stop id="SvgjsStop14273" stop-opacity="0" stop-color="#6d4221" offset="0.9958" ></stop></linearGradient><linearGradient id="SvgjsLinearGradient14275" x1="-18.8571" y1="82.7246" x2="-18.8571" y2="107.5423" gradientTransform="matrix(-1 0 0 1 100.2947 0)" gradientUnits="userSpaceOnUse" class="svga-on-canvas-glasses-gradient-single-1-null"><stop id="SvgjsStop14276" stop-opacity="1" stop-color="#3d2d1c" offset="0.0208" ></stop><stop id="SvgjsStop14277" stop-opacity="0.6291" stop-color="#402e1c" offset="0.3825" ></stop><stop id="SvgjsStop14278" stop-opacity="0.3897" stop-color="#48321d" offset="0.6159" ></stop><stop id="SvgjsStop14279" stop-opacity="0.1881" stop-color="#57381f" offset="0.8124" ></stop><stop id="SvgjsStop14280" stop-opacity="7.593334e-03" stop-color="#6c4221" offset="0.9884" ></stop><stop id="SvgjsStop14281" stop-opacity="0" stop-color="#6d4221" offset="0.9958" ></stop></linearGradient></defs></svg>